G75*
G70*
%OFA0B0*%
%FSLAX24Y24*%
%IPPOS*%
%LPD*%
%AMOC8*
5,1,8,0,0,1.08239X$1,22.5*
%
%ADD10C,0.0000*%
%ADD11R,0.2520X0.2283*%
%ADD12R,0.0866X0.0315*%
%ADD13R,0.0472X0.0315*%
%ADD14R,0.0315X0.0472*%
%ADD15R,0.0551X0.1181*%
%ADD16R,0.0590X0.0790*%
%ADD17R,0.1500X0.0790*%
%ADD18R,0.0870X0.0240*%
%ADD19R,0.0787X0.0472*%
%ADD20R,0.0472X0.0276*%
%ADD21R,0.0472X0.0787*%
%ADD22R,0.0551X0.0394*%
D10*
X000175Y005250D02*
X000175Y016246D01*
X034420Y016246D01*
X034420Y005250D01*
X000175Y005250D01*
X012920Y011125D02*
X012922Y011175D01*
X012928Y011225D01*
X012938Y011274D01*
X012952Y011322D01*
X012969Y011369D01*
X012990Y011414D01*
X013015Y011458D01*
X013043Y011499D01*
X013075Y011538D01*
X013109Y011575D01*
X013146Y011609D01*
X013186Y011639D01*
X013228Y011666D01*
X013272Y011690D01*
X013318Y011711D01*
X013365Y011727D01*
X013413Y011740D01*
X013463Y011749D01*
X013512Y011754D01*
X013563Y011755D01*
X013613Y011752D01*
X013662Y011745D01*
X013711Y011734D01*
X013759Y011719D01*
X013805Y011701D01*
X013850Y011679D01*
X013893Y011653D01*
X013934Y011624D01*
X013973Y011592D01*
X014009Y011557D01*
X014041Y011519D01*
X014071Y011479D01*
X014098Y011436D01*
X014121Y011392D01*
X014140Y011346D01*
X014156Y011298D01*
X014168Y011249D01*
X014176Y011200D01*
X014180Y011150D01*
X014180Y011100D01*
X014176Y011050D01*
X014168Y011001D01*
X014156Y010952D01*
X014140Y010904D01*
X014121Y010858D01*
X014098Y010814D01*
X014071Y010771D01*
X014041Y010731D01*
X014009Y010693D01*
X013973Y010658D01*
X013934Y010626D01*
X013893Y010597D01*
X013850Y010571D01*
X013805Y010549D01*
X013759Y010531D01*
X013711Y010516D01*
X013662Y010505D01*
X013613Y010498D01*
X013563Y010495D01*
X013512Y010496D01*
X013463Y010501D01*
X013413Y010510D01*
X013365Y010523D01*
X013318Y010539D01*
X013272Y010560D01*
X013228Y010584D01*
X013186Y010611D01*
X013146Y010641D01*
X013109Y010675D01*
X013075Y010712D01*
X013043Y010751D01*
X013015Y010792D01*
X012990Y010836D01*
X012969Y010881D01*
X012952Y010928D01*
X012938Y010976D01*
X012928Y011025D01*
X012922Y011075D01*
X012920Y011125D01*
X016300Y007750D02*
X016675Y007750D01*
X016675Y015250D01*
X016300Y015250D01*
X016300Y007750D01*
X025675Y008750D02*
X025677Y008800D01*
X025683Y008850D01*
X025693Y008900D01*
X025706Y008948D01*
X025723Y008996D01*
X025744Y009042D01*
X025768Y009086D01*
X025796Y009128D01*
X025827Y009168D01*
X025861Y009205D01*
X025898Y009240D01*
X025937Y009271D01*
X025978Y009300D01*
X026022Y009325D01*
X026068Y009347D01*
X026115Y009365D01*
X026163Y009379D01*
X026212Y009390D01*
X026262Y009397D01*
X026312Y009400D01*
X026363Y009399D01*
X026413Y009394D01*
X026463Y009385D01*
X026511Y009373D01*
X026559Y009356D01*
X026605Y009336D01*
X026650Y009313D01*
X026693Y009286D01*
X026733Y009256D01*
X026771Y009223D01*
X026806Y009187D01*
X026839Y009148D01*
X026868Y009107D01*
X026894Y009064D01*
X026917Y009019D01*
X026936Y008972D01*
X026951Y008924D01*
X026963Y008875D01*
X026971Y008825D01*
X026975Y008775D01*
X026975Y008725D01*
X026971Y008675D01*
X026963Y008625D01*
X026951Y008576D01*
X026936Y008528D01*
X026917Y008481D01*
X026894Y008436D01*
X026868Y008393D01*
X026839Y008352D01*
X026806Y008313D01*
X026771Y008277D01*
X026733Y008244D01*
X026693Y008214D01*
X026650Y008187D01*
X026605Y008164D01*
X026559Y008144D01*
X026511Y008127D01*
X026463Y008115D01*
X026413Y008106D01*
X026363Y008101D01*
X026312Y008100D01*
X026262Y008103D01*
X026212Y008110D01*
X026163Y008121D01*
X026115Y008135D01*
X026068Y008153D01*
X026022Y008175D01*
X025978Y008200D01*
X025937Y008229D01*
X025898Y008260D01*
X025861Y008295D01*
X025827Y008332D01*
X025796Y008372D01*
X025768Y008414D01*
X025744Y008458D01*
X025723Y008504D01*
X025706Y008552D01*
X025693Y008600D01*
X025683Y008650D01*
X025677Y008700D01*
X025675Y008750D01*
X025550Y013750D02*
X025552Y013800D01*
X025558Y013850D01*
X025568Y013900D01*
X025581Y013948D01*
X025598Y013996D01*
X025619Y014042D01*
X025643Y014086D01*
X025671Y014128D01*
X025702Y014168D01*
X025736Y014205D01*
X025773Y014240D01*
X025812Y014271D01*
X025853Y014300D01*
X025897Y014325D01*
X025943Y014347D01*
X025990Y014365D01*
X026038Y014379D01*
X026087Y014390D01*
X026137Y014397D01*
X026187Y014400D01*
X026238Y014399D01*
X026288Y014394D01*
X026338Y014385D01*
X026386Y014373D01*
X026434Y014356D01*
X026480Y014336D01*
X026525Y014313D01*
X026568Y014286D01*
X026608Y014256D01*
X026646Y014223D01*
X026681Y014187D01*
X026714Y014148D01*
X026743Y014107D01*
X026769Y014064D01*
X026792Y014019D01*
X026811Y013972D01*
X026826Y013924D01*
X026838Y013875D01*
X026846Y013825D01*
X026850Y013775D01*
X026850Y013725D01*
X026846Y013675D01*
X026838Y013625D01*
X026826Y013576D01*
X026811Y013528D01*
X026792Y013481D01*
X026769Y013436D01*
X026743Y013393D01*
X026714Y013352D01*
X026681Y013313D01*
X026646Y013277D01*
X026608Y013244D01*
X026568Y013214D01*
X026525Y013187D01*
X026480Y013164D01*
X026434Y013144D01*
X026386Y013127D01*
X026338Y013115D01*
X026288Y013106D01*
X026238Y013101D01*
X026187Y013100D01*
X026137Y013103D01*
X026087Y013110D01*
X026038Y013121D01*
X025990Y013135D01*
X025943Y013153D01*
X025897Y013175D01*
X025853Y013200D01*
X025812Y013229D01*
X025773Y013260D01*
X025736Y013295D01*
X025702Y013332D01*
X025671Y013372D01*
X025643Y013414D01*
X025619Y013458D01*
X025598Y013504D01*
X025581Y013552D01*
X025568Y013600D01*
X025558Y013650D01*
X025552Y013700D01*
X025550Y013750D01*
X032920Y015375D02*
X032922Y015425D01*
X032928Y015475D01*
X032938Y015524D01*
X032952Y015572D01*
X032969Y015619D01*
X032990Y015664D01*
X033015Y015708D01*
X033043Y015749D01*
X033075Y015788D01*
X033109Y015825D01*
X033146Y015859D01*
X033186Y015889D01*
X033228Y015916D01*
X033272Y015940D01*
X033318Y015961D01*
X033365Y015977D01*
X033413Y015990D01*
X033463Y015999D01*
X033512Y016004D01*
X033563Y016005D01*
X033613Y016002D01*
X033662Y015995D01*
X033711Y015984D01*
X033759Y015969D01*
X033805Y015951D01*
X033850Y015929D01*
X033893Y015903D01*
X033934Y015874D01*
X033973Y015842D01*
X034009Y015807D01*
X034041Y015769D01*
X034071Y015729D01*
X034098Y015686D01*
X034121Y015642D01*
X034140Y015596D01*
X034156Y015548D01*
X034168Y015499D01*
X034176Y015450D01*
X034180Y015400D01*
X034180Y015350D01*
X034176Y015300D01*
X034168Y015251D01*
X034156Y015202D01*
X034140Y015154D01*
X034121Y015108D01*
X034098Y015064D01*
X034071Y015021D01*
X034041Y014981D01*
X034009Y014943D01*
X033973Y014908D01*
X033934Y014876D01*
X033893Y014847D01*
X033850Y014821D01*
X033805Y014799D01*
X033759Y014781D01*
X033711Y014766D01*
X033662Y014755D01*
X033613Y014748D01*
X033563Y014745D01*
X033512Y014746D01*
X033463Y014751D01*
X033413Y014760D01*
X033365Y014773D01*
X033318Y014789D01*
X033272Y014810D01*
X033228Y014834D01*
X033186Y014861D01*
X033146Y014891D01*
X033109Y014925D01*
X033075Y014962D01*
X033043Y015001D01*
X033015Y015042D01*
X032990Y015086D01*
X032969Y015131D01*
X032952Y015178D01*
X032938Y015226D01*
X032928Y015275D01*
X032922Y015325D01*
X032920Y015375D01*
D11*
X029406Y007750D03*
D12*
X031887Y007301D03*
X031887Y006852D03*
X031887Y008199D03*
X031887Y008648D03*
D13*
X033175Y007854D03*
X033175Y007146D03*
X033175Y006729D03*
X033175Y006021D03*
X006550Y010021D03*
X006550Y010729D03*
X002300Y009104D03*
X002300Y008396D03*
D14*
X002446Y009750D03*
X003154Y009750D03*
X008071Y007125D03*
X008779Y007125D03*
X016571Y006625D03*
X017279Y006625D03*
X018821Y006625D03*
X019529Y006625D03*
X003279Y012375D03*
X002571Y012375D03*
D15*
X002675Y013430D03*
X002675Y015320D03*
X006925Y015320D03*
X006925Y013430D03*
X029175Y013555D03*
X029175Y012320D03*
X031800Y012320D03*
X031800Y013555D03*
X031800Y015445D03*
X029175Y015445D03*
X029175Y010430D03*
X031800Y010430D03*
D16*
X005710Y010635D03*
X004810Y010635D03*
X003910Y010635D03*
D17*
X004800Y013115D03*
D18*
X005200Y009125D03*
X005200Y008625D03*
X005200Y008125D03*
X005200Y007625D03*
X005200Y007125D03*
X005200Y006625D03*
X005200Y006125D03*
X003150Y006125D03*
X003150Y006625D03*
X003150Y007125D03*
X003150Y007625D03*
X003150Y008125D03*
X003150Y008625D03*
X003150Y009125D03*
D19*
X002425Y010370D03*
X002425Y011630D03*
X004800Y013995D03*
X004800Y015255D03*
D20*
X022822Y013625D03*
X024278Y013625D03*
D21*
X024055Y012375D03*
X022795Y012375D03*
X022795Y010375D03*
X024055Y010375D03*
X010055Y015500D03*
X008795Y015500D03*
D22*
X008742Y006374D03*
X009608Y006000D03*
X008742Y005626D03*
M02*
