G75*
G70*
%OFA0B0*%
%FSLAX24Y24*%
%IPPOS*%
%LPD*%
%AMOC8*
5,1,8,0,0,1.08239X$1,22.5*
%
%ADD10C,0.0000*%
%ADD11C,0.0740*%
%ADD12R,0.2520X0.2283*%
%ADD13R,0.0866X0.0315*%
%ADD14R,0.0472X0.0315*%
%ADD15R,0.0315X0.0472*%
%ADD16C,0.1200*%
%ADD17R,0.0551X0.1181*%
%ADD18C,0.0680*%
%ADD19R,0.0590X0.0790*%
%ADD20R,0.1500X0.0790*%
%ADD21R,0.0870X0.0240*%
%ADD22R,0.0787X0.0472*%
%ADD23R,0.0472X0.0276*%
%ADD24R,0.0472X0.0787*%
%ADD25R,0.0551X0.0394*%
%ADD26C,0.0080*%
%ADD27C,0.0240*%
%ADD28C,0.0160*%
%ADD29C,0.0436*%
%ADD30C,0.0660*%
D10*
X000175Y005250D02*
X000175Y016246D01*
X034420Y016246D01*
X034420Y005250D01*
X000175Y005250D01*
X012920Y011125D02*
X012922Y011175D01*
X012928Y011225D01*
X012938Y011274D01*
X012952Y011322D01*
X012969Y011369D01*
X012990Y011414D01*
X013015Y011458D01*
X013043Y011499D01*
X013075Y011538D01*
X013109Y011575D01*
X013146Y011609D01*
X013186Y011639D01*
X013228Y011666D01*
X013272Y011690D01*
X013318Y011711D01*
X013365Y011727D01*
X013413Y011740D01*
X013463Y011749D01*
X013512Y011754D01*
X013563Y011755D01*
X013613Y011752D01*
X013662Y011745D01*
X013711Y011734D01*
X013759Y011719D01*
X013805Y011701D01*
X013850Y011679D01*
X013893Y011653D01*
X013934Y011624D01*
X013973Y011592D01*
X014009Y011557D01*
X014041Y011519D01*
X014071Y011479D01*
X014098Y011436D01*
X014121Y011392D01*
X014140Y011346D01*
X014156Y011298D01*
X014168Y011249D01*
X014176Y011200D01*
X014180Y011150D01*
X014180Y011100D01*
X014176Y011050D01*
X014168Y011001D01*
X014156Y010952D01*
X014140Y010904D01*
X014121Y010858D01*
X014098Y010814D01*
X014071Y010771D01*
X014041Y010731D01*
X014009Y010693D01*
X013973Y010658D01*
X013934Y010626D01*
X013893Y010597D01*
X013850Y010571D01*
X013805Y010549D01*
X013759Y010531D01*
X013711Y010516D01*
X013662Y010505D01*
X013613Y010498D01*
X013563Y010495D01*
X013512Y010496D01*
X013463Y010501D01*
X013413Y010510D01*
X013365Y010523D01*
X013318Y010539D01*
X013272Y010560D01*
X013228Y010584D01*
X013186Y010611D01*
X013146Y010641D01*
X013109Y010675D01*
X013075Y010712D01*
X013043Y010751D01*
X013015Y010792D01*
X012990Y010836D01*
X012969Y010881D01*
X012952Y010928D01*
X012938Y010976D01*
X012928Y011025D01*
X012922Y011075D01*
X012920Y011125D01*
X016300Y007750D02*
X016675Y007750D01*
X016675Y015250D01*
X016300Y015250D01*
X016300Y007750D01*
X025675Y008750D02*
X025677Y008800D01*
X025683Y008850D01*
X025693Y008900D01*
X025706Y008948D01*
X025723Y008996D01*
X025744Y009042D01*
X025768Y009086D01*
X025796Y009128D01*
X025827Y009168D01*
X025861Y009205D01*
X025898Y009240D01*
X025937Y009271D01*
X025978Y009300D01*
X026022Y009325D01*
X026068Y009347D01*
X026115Y009365D01*
X026163Y009379D01*
X026212Y009390D01*
X026262Y009397D01*
X026312Y009400D01*
X026363Y009399D01*
X026413Y009394D01*
X026463Y009385D01*
X026511Y009373D01*
X026559Y009356D01*
X026605Y009336D01*
X026650Y009313D01*
X026693Y009286D01*
X026733Y009256D01*
X026771Y009223D01*
X026806Y009187D01*
X026839Y009148D01*
X026868Y009107D01*
X026894Y009064D01*
X026917Y009019D01*
X026936Y008972D01*
X026951Y008924D01*
X026963Y008875D01*
X026971Y008825D01*
X026975Y008775D01*
X026975Y008725D01*
X026971Y008675D01*
X026963Y008625D01*
X026951Y008576D01*
X026936Y008528D01*
X026917Y008481D01*
X026894Y008436D01*
X026868Y008393D01*
X026839Y008352D01*
X026806Y008313D01*
X026771Y008277D01*
X026733Y008244D01*
X026693Y008214D01*
X026650Y008187D01*
X026605Y008164D01*
X026559Y008144D01*
X026511Y008127D01*
X026463Y008115D01*
X026413Y008106D01*
X026363Y008101D01*
X026312Y008100D01*
X026262Y008103D01*
X026212Y008110D01*
X026163Y008121D01*
X026115Y008135D01*
X026068Y008153D01*
X026022Y008175D01*
X025978Y008200D01*
X025937Y008229D01*
X025898Y008260D01*
X025861Y008295D01*
X025827Y008332D01*
X025796Y008372D01*
X025768Y008414D01*
X025744Y008458D01*
X025723Y008504D01*
X025706Y008552D01*
X025693Y008600D01*
X025683Y008650D01*
X025677Y008700D01*
X025675Y008750D01*
X025550Y013750D02*
X025552Y013800D01*
X025558Y013850D01*
X025568Y013900D01*
X025581Y013948D01*
X025598Y013996D01*
X025619Y014042D01*
X025643Y014086D01*
X025671Y014128D01*
X025702Y014168D01*
X025736Y014205D01*
X025773Y014240D01*
X025812Y014271D01*
X025853Y014300D01*
X025897Y014325D01*
X025943Y014347D01*
X025990Y014365D01*
X026038Y014379D01*
X026087Y014390D01*
X026137Y014397D01*
X026187Y014400D01*
X026238Y014399D01*
X026288Y014394D01*
X026338Y014385D01*
X026386Y014373D01*
X026434Y014356D01*
X026480Y014336D01*
X026525Y014313D01*
X026568Y014286D01*
X026608Y014256D01*
X026646Y014223D01*
X026681Y014187D01*
X026714Y014148D01*
X026743Y014107D01*
X026769Y014064D01*
X026792Y014019D01*
X026811Y013972D01*
X026826Y013924D01*
X026838Y013875D01*
X026846Y013825D01*
X026850Y013775D01*
X026850Y013725D01*
X026846Y013675D01*
X026838Y013625D01*
X026826Y013576D01*
X026811Y013528D01*
X026792Y013481D01*
X026769Y013436D01*
X026743Y013393D01*
X026714Y013352D01*
X026681Y013313D01*
X026646Y013277D01*
X026608Y013244D01*
X026568Y013214D01*
X026525Y013187D01*
X026480Y013164D01*
X026434Y013144D01*
X026386Y013127D01*
X026338Y013115D01*
X026288Y013106D01*
X026238Y013101D01*
X026187Y013100D01*
X026137Y013103D01*
X026087Y013110D01*
X026038Y013121D01*
X025990Y013135D01*
X025943Y013153D01*
X025897Y013175D01*
X025853Y013200D01*
X025812Y013229D01*
X025773Y013260D01*
X025736Y013295D01*
X025702Y013332D01*
X025671Y013372D01*
X025643Y013414D01*
X025619Y013458D01*
X025598Y013504D01*
X025581Y013552D01*
X025568Y013600D01*
X025558Y013650D01*
X025552Y013700D01*
X025550Y013750D01*
X032920Y015375D02*
X032922Y015425D01*
X032928Y015475D01*
X032938Y015524D01*
X032952Y015572D01*
X032969Y015619D01*
X032990Y015664D01*
X033015Y015708D01*
X033043Y015749D01*
X033075Y015788D01*
X033109Y015825D01*
X033146Y015859D01*
X033186Y015889D01*
X033228Y015916D01*
X033272Y015940D01*
X033318Y015961D01*
X033365Y015977D01*
X033413Y015990D01*
X033463Y015999D01*
X033512Y016004D01*
X033563Y016005D01*
X033613Y016002D01*
X033662Y015995D01*
X033711Y015984D01*
X033759Y015969D01*
X033805Y015951D01*
X033850Y015929D01*
X033893Y015903D01*
X033934Y015874D01*
X033973Y015842D01*
X034009Y015807D01*
X034041Y015769D01*
X034071Y015729D01*
X034098Y015686D01*
X034121Y015642D01*
X034140Y015596D01*
X034156Y015548D01*
X034168Y015499D01*
X034176Y015450D01*
X034180Y015400D01*
X034180Y015350D01*
X034176Y015300D01*
X034168Y015251D01*
X034156Y015202D01*
X034140Y015154D01*
X034121Y015108D01*
X034098Y015064D01*
X034071Y015021D01*
X034041Y014981D01*
X034009Y014943D01*
X033973Y014908D01*
X033934Y014876D01*
X033893Y014847D01*
X033850Y014821D01*
X033805Y014799D01*
X033759Y014781D01*
X033711Y014766D01*
X033662Y014755D01*
X033613Y014748D01*
X033563Y014745D01*
X033512Y014746D01*
X033463Y014751D01*
X033413Y014760D01*
X033365Y014773D01*
X033318Y014789D01*
X033272Y014810D01*
X033228Y014834D01*
X033186Y014861D01*
X033146Y014891D01*
X033109Y014925D01*
X033075Y014962D01*
X033043Y015001D01*
X033015Y015042D01*
X032990Y015086D01*
X032969Y015131D01*
X032952Y015178D01*
X032938Y015226D01*
X032928Y015275D01*
X032922Y015325D01*
X032920Y015375D01*
D11*
X033675Y010875D03*
X033675Y009250D03*
X020675Y011250D03*
X018175Y015625D03*
X007550Y009000D03*
X007550Y008000D03*
X007550Y006500D03*
X000800Y006750D03*
X000800Y007750D03*
X000800Y008750D03*
X000800Y009750D03*
X000800Y010750D03*
X000800Y012875D03*
X000800Y015500D03*
X000800Y005750D03*
D12*
X029406Y007750D03*
D13*
X031887Y007301D03*
X031887Y006852D03*
X031887Y008199D03*
X031887Y008648D03*
D14*
X033175Y007854D03*
X033175Y007146D03*
X033175Y006729D03*
X033175Y006021D03*
X006550Y010021D03*
X006550Y010729D03*
X002300Y009104D03*
X002300Y008396D03*
D15*
X002446Y009750D03*
X003154Y009750D03*
X008071Y007125D03*
X008779Y007125D03*
X016571Y006625D03*
X017279Y006625D03*
X018821Y006625D03*
X019529Y006625D03*
X003279Y012375D03*
X002571Y012375D03*
D16*
X008300Y011125D03*
X018800Y011125D03*
D17*
X029175Y010430D03*
X031800Y010430D03*
X031800Y012320D03*
X031800Y013555D03*
X029175Y013555D03*
X029175Y012320D03*
X029175Y015445D03*
X031800Y015445D03*
X006925Y015320D03*
X006925Y013430D03*
X002675Y013430D03*
X002675Y015320D03*
D18*
X018960Y014750D02*
X019640Y014750D01*
X019640Y013750D02*
X018960Y013750D01*
X018960Y012750D02*
X019640Y012750D01*
X019765Y009750D02*
X019085Y009750D01*
X019085Y008750D02*
X019765Y008750D01*
X019765Y007750D02*
X019085Y007750D01*
D19*
X005710Y010635D03*
X004810Y010635D03*
X003910Y010635D03*
D20*
X004800Y013115D03*
D21*
X005200Y009125D03*
X005200Y008625D03*
X005200Y008125D03*
X005200Y007625D03*
X005200Y007125D03*
X005200Y006625D03*
X005200Y006125D03*
X003150Y006125D03*
X003150Y006625D03*
X003150Y007125D03*
X003150Y007625D03*
X003150Y008125D03*
X003150Y008625D03*
X003150Y009125D03*
D22*
X002425Y010370D03*
X002425Y011630D03*
X004800Y013995D03*
X004800Y015255D03*
D23*
X022822Y013625D03*
X024278Y013625D03*
D24*
X024055Y012375D03*
X022795Y012375D03*
X022795Y010375D03*
X024055Y010375D03*
X010055Y015500D03*
X008795Y015500D03*
D25*
X008742Y006374D03*
X009608Y006000D03*
X008742Y005626D03*
D26*
X009212Y005753D02*
X009283Y005683D01*
X009933Y005683D01*
X010004Y005753D01*
X010004Y005800D01*
X010092Y005800D01*
X010217Y005675D01*
X010272Y005675D01*
X010358Y005588D01*
X010483Y005537D01*
X010617Y005537D01*
X010742Y005588D01*
X010837Y005683D01*
X010888Y005808D01*
X010888Y005942D01*
X010837Y006067D01*
X010742Y006162D01*
X010617Y006213D01*
X010483Y006213D01*
X010358Y006162D01*
X010327Y006130D01*
X010258Y006200D01*
X010004Y006200D01*
X010004Y006247D01*
X009933Y006317D01*
X009283Y006317D01*
X009212Y006247D01*
X009212Y005753D01*
X009245Y005721D02*
X005079Y005721D01*
X005157Y005800D02*
X009212Y005800D01*
X009212Y005878D02*
X005236Y005878D01*
X005243Y005885D02*
X005685Y005885D01*
X005755Y005955D01*
X005755Y006295D01*
X005685Y006365D01*
X004715Y006365D01*
X004645Y006295D01*
X004645Y005955D01*
X004650Y005950D01*
X003700Y005950D01*
X003705Y005955D01*
X003705Y006295D01*
X003635Y006365D01*
X002665Y006365D01*
X002625Y006325D01*
X002258Y006325D01*
X001625Y006958D01*
X001625Y009583D01*
X001508Y009700D01*
X001258Y009950D01*
X001248Y009950D01*
X001215Y010028D01*
X001078Y010165D01*
X000897Y010240D01*
X000703Y010240D01*
X000522Y010165D01*
X000385Y010028D01*
X000315Y009860D01*
X000315Y010640D01*
X000385Y010472D01*
X000522Y010335D01*
X000703Y010260D01*
X000897Y010260D01*
X001078Y010335D01*
X001215Y010472D01*
X001290Y010653D01*
X001290Y010847D01*
X001215Y011028D01*
X001163Y011080D01*
X001383Y011300D01*
X001955Y011300D01*
X001982Y011274D01*
X002508Y011274D01*
X002512Y011273D01*
X002543Y011260D01*
X002557Y011260D01*
X002572Y011256D01*
X002605Y011260D01*
X002638Y011260D01*
X002652Y011266D01*
X002666Y011267D01*
X002678Y011274D01*
X002868Y011274D01*
X002939Y011344D01*
X002939Y011635D01*
X002975Y011635D01*
X002975Y010106D01*
X002947Y010106D01*
X002877Y010036D01*
X002877Y009464D01*
X002943Y009398D01*
X002942Y009365D01*
X002665Y009365D01*
X002641Y009340D01*
X002627Y009340D01*
X002586Y009382D01*
X002014Y009382D01*
X001944Y009312D01*
X001944Y008897D01*
X002014Y008827D01*
X002586Y008827D01*
X002655Y008896D01*
X002665Y008885D01*
X003635Y008885D01*
X003705Y008955D01*
X003705Y009295D01*
X003635Y009365D01*
X003342Y009365D01*
X003343Y009394D01*
X003362Y009394D01*
X003432Y009464D01*
X003432Y010036D01*
X003375Y010093D01*
X003375Y011635D01*
X004305Y011635D01*
X004570Y011285D01*
X004570Y011150D01*
X004465Y011150D01*
X004395Y011080D01*
X004395Y010190D01*
X004465Y010120D01*
X005155Y010120D01*
X005225Y010190D01*
X005225Y011080D01*
X005155Y011150D01*
X005050Y011150D01*
X005050Y011348D01*
X005054Y011379D01*
X005050Y011396D01*
X005050Y011413D01*
X005038Y011441D01*
X005030Y011471D01*
X005020Y011485D01*
X005013Y011501D01*
X004991Y011523D01*
X004635Y011995D01*
X004628Y012011D01*
X004606Y012033D01*
X004588Y012058D01*
X004573Y012066D01*
X004561Y012078D01*
X004532Y012090D01*
X004505Y012106D01*
X004489Y012108D01*
X004473Y012115D01*
X004442Y012115D01*
X004411Y012119D01*
X004394Y012115D01*
X002848Y012115D01*
X002848Y012661D01*
X002778Y012731D01*
X002363Y012731D01*
X002293Y012661D01*
X002293Y012089D01*
X002344Y012039D01*
X002346Y011986D01*
X001982Y011986D01*
X001911Y011916D01*
X001911Y011700D01*
X001217Y011700D01*
X001100Y011583D01*
X000757Y011240D01*
X000703Y011240D01*
X000522Y011165D01*
X000385Y011028D01*
X000315Y010860D01*
X000315Y015390D01*
X000380Y015234D01*
X000475Y014472D01*
X000475Y014167D01*
X000592Y014050D01*
X000864Y014050D01*
X000892Y014042D01*
X000953Y014050D01*
X006850Y014050D01*
X006850Y010993D01*
X006836Y011007D01*
X006264Y011007D01*
X006235Y010978D01*
X006125Y010957D01*
X006125Y011080D01*
X006055Y011150D01*
X005365Y011150D01*
X005295Y011080D01*
X005295Y010190D01*
X005365Y010120D01*
X006055Y010120D01*
X006125Y010190D01*
X006125Y010469D01*
X006228Y010488D01*
X006264Y010452D01*
X006836Y010452D01*
X006850Y010466D01*
X006850Y010042D01*
X006967Y009925D01*
X009383Y009925D01*
X009500Y010042D01*
X009500Y015208D01*
X009383Y015325D01*
X009250Y015325D01*
X009250Y015958D01*
X009133Y016075D01*
X000592Y016075D01*
X000475Y015958D01*
X000475Y015868D01*
X000385Y015778D01*
X000315Y015610D01*
X000315Y016106D01*
X018056Y016106D01*
X017897Y016040D01*
X017760Y015903D01*
X017685Y015722D01*
X017685Y015528D01*
X017760Y015347D01*
X017897Y015210D01*
X018078Y015135D01*
X018272Y015135D01*
X018453Y015210D01*
X018590Y015347D01*
X018623Y015425D01*
X018943Y015425D01*
X019086Y015210D01*
X018868Y015210D01*
X018699Y015140D01*
X018570Y015011D01*
X018500Y014841D01*
X018500Y014658D01*
X018570Y014489D01*
X018699Y014360D01*
X018784Y014325D01*
X017342Y014325D01*
X017225Y014208D01*
X017225Y007417D01*
X017342Y007300D01*
X018969Y007300D01*
X018993Y007290D01*
X019856Y007290D01*
X020026Y007360D01*
X020091Y007425D01*
X022810Y007425D01*
X022810Y006846D01*
X019807Y006863D01*
X019807Y006911D01*
X019737Y006981D01*
X019322Y006981D01*
X019252Y006911D01*
X019252Y006339D01*
X019322Y006269D01*
X019737Y006269D01*
X019807Y006339D01*
X019807Y006383D01*
X023002Y006365D01*
X023002Y006364D01*
X023049Y006364D01*
X023096Y006364D01*
X023097Y006364D01*
X023098Y006364D01*
X023141Y006382D01*
X023185Y006400D01*
X023185Y006401D01*
X023186Y006401D01*
X023219Y006434D01*
X023253Y006467D01*
X023253Y006468D01*
X023253Y006468D01*
X023271Y006512D01*
X023290Y006555D01*
X023290Y006556D01*
X023290Y006557D01*
X023290Y006604D01*
X023290Y006651D01*
X023290Y007425D01*
X023725Y007425D01*
X023725Y006417D01*
X023842Y006300D01*
X031133Y006300D01*
X031250Y006417D01*
X031250Y008517D01*
X031342Y008425D01*
X031349Y008425D01*
X031351Y008423D01*
X031334Y008406D01*
X031334Y007992D01*
X031404Y007921D01*
X032096Y007921D01*
X032352Y007665D01*
X032352Y007662D01*
X032410Y007607D01*
X032467Y007550D01*
X032470Y007550D01*
X032806Y007232D01*
X032819Y007219D01*
X032819Y006938D01*
X032820Y006938D01*
X032819Y006937D01*
X032819Y006709D01*
X032750Y006778D01*
X032750Y007208D01*
X032633Y007325D01*
X032457Y007501D01*
X032440Y007501D01*
X032440Y007508D01*
X032369Y007579D01*
X031404Y007579D01*
X031334Y007508D01*
X031334Y007094D01*
X031351Y007077D01*
X031334Y007060D01*
X031334Y006645D01*
X031404Y006575D01*
X032215Y006575D01*
X032212Y006567D01*
X032212Y006433D01*
X032263Y006308D01*
X032358Y006213D01*
X032398Y006197D01*
X011382Y006075D01*
X011305Y006152D01*
X011337Y006183D01*
X011388Y006308D01*
X011388Y006442D01*
X011337Y006567D01*
X011242Y006662D01*
X011117Y006713D01*
X010983Y006713D01*
X010858Y006662D01*
X010763Y006567D01*
X010712Y006442D01*
X010712Y006308D01*
X010763Y006183D01*
X010850Y006097D01*
X010850Y006042D01*
X011100Y005792D01*
X011100Y005791D01*
X011159Y005733D01*
X011217Y005675D01*
X011218Y005675D01*
X011218Y005675D01*
X011300Y005675D01*
X011383Y005675D01*
X011383Y005675D01*
X032833Y005799D01*
X032889Y005743D01*
X033461Y005743D01*
X033531Y005813D01*
X033531Y006228D01*
X033461Y006298D01*
X033375Y006298D01*
X033375Y006333D01*
X033258Y006450D01*
X033092Y006450D01*
X032940Y006298D01*
X032889Y006298D01*
X032819Y006228D01*
X032819Y006199D01*
X032706Y006199D01*
X032742Y006213D01*
X032837Y006308D01*
X032888Y006433D01*
X032888Y006453D01*
X032889Y006452D01*
X033461Y006452D01*
X033531Y006522D01*
X033531Y006937D01*
X033530Y006938D01*
X033531Y006938D01*
X033531Y007353D01*
X033461Y007423D01*
X033180Y007423D01*
X033143Y007460D01*
X033143Y007463D01*
X033085Y007518D01*
X033029Y007575D01*
X033025Y007575D01*
X032690Y007893D01*
X032440Y008143D01*
X032440Y008406D01*
X032422Y008423D01*
X032424Y008425D01*
X034133Y008425D01*
X034250Y008542D01*
X034250Y009708D01*
X034133Y009825D01*
X031342Y009825D01*
X031225Y009708D01*
X031225Y009108D01*
X031133Y009200D01*
X027375Y009200D01*
X027375Y011050D01*
X033133Y011050D01*
X033250Y011167D01*
X033250Y014583D01*
X033133Y014700D01*
X023842Y014700D01*
X023725Y014583D01*
X023725Y012845D01*
X023699Y012818D01*
X023699Y012706D01*
X023685Y012673D01*
X023685Y012577D01*
X023699Y012544D01*
X023699Y011932D01*
X023725Y011905D01*
X023725Y010845D01*
X023699Y010818D01*
X023699Y009932D01*
X023725Y009905D01*
X023725Y009825D01*
X022250Y009825D01*
X022250Y009958D01*
X022133Y010075D01*
X020091Y010075D01*
X020026Y010140D01*
X019856Y010210D01*
X019750Y010210D01*
X019750Y013298D01*
X019901Y013360D01*
X020030Y013489D01*
X020100Y013658D01*
X020100Y013841D01*
X020030Y014011D01*
X019901Y014140D01*
X019750Y014202D01*
X019750Y014208D01*
X019668Y014290D01*
X019731Y014290D01*
X019901Y014360D01*
X020030Y014489D01*
X020100Y014658D01*
X020100Y014841D01*
X020030Y015011D01*
X019901Y015140D01*
X019731Y015210D01*
X019500Y015210D01*
X019500Y015230D01*
X019512Y015292D01*
X019500Y015311D01*
X019500Y015333D01*
X019455Y015377D01*
X019250Y015686D01*
X019250Y015708D01*
X019205Y015752D01*
X019170Y015805D01*
X019149Y015809D01*
X019133Y015825D01*
X019070Y015825D01*
X019008Y015837D01*
X018989Y015825D01*
X018623Y015825D01*
X018590Y015903D01*
X018453Y016040D01*
X018294Y016106D01*
X033303Y016106D01*
X033114Y016028D01*
X032897Y015811D01*
X032780Y015528D01*
X032780Y015222D01*
X032897Y014939D01*
X033114Y014722D01*
X033397Y014605D01*
X033703Y014605D01*
X033986Y014722D01*
X034203Y014939D01*
X034280Y015126D01*
X034280Y005390D01*
X000315Y005390D01*
X000315Y006640D01*
X000385Y006472D01*
X000522Y006335D01*
X000703Y006260D01*
X000897Y006260D01*
X001078Y006335D01*
X001130Y006387D01*
X001850Y005667D01*
X001967Y005550D01*
X004908Y005550D01*
X005243Y005885D01*
X005000Y005643D02*
X010304Y005643D01*
X010417Y005564D02*
X004922Y005564D01*
X004645Y005957D02*
X003705Y005957D01*
X003705Y006035D02*
X004645Y006035D01*
X004645Y006114D02*
X003705Y006114D01*
X003705Y006192D02*
X004645Y006192D01*
X004645Y006271D02*
X003705Y006271D01*
X003651Y006349D02*
X004223Y006349D01*
X004233Y006338D02*
X004358Y006287D01*
X004492Y006287D01*
X004617Y006338D01*
X004689Y006411D01*
X004715Y006385D01*
X005685Y006385D01*
X005755Y006455D01*
X005755Y006795D01*
X005685Y006865D01*
X004715Y006865D01*
X004689Y006839D01*
X004617Y006912D01*
X004492Y006963D01*
X004358Y006963D01*
X004233Y006912D01*
X004138Y006817D01*
X004087Y006692D01*
X004087Y006558D01*
X004138Y006433D01*
X004233Y006338D01*
X004144Y006428D02*
X003677Y006428D01*
X003705Y006455D02*
X003705Y006795D01*
X003635Y006865D01*
X002665Y006865D01*
X002595Y006795D01*
X002595Y006455D01*
X002665Y006385D01*
X003635Y006385D01*
X003705Y006455D01*
X003705Y006506D02*
X004108Y006506D01*
X004087Y006585D02*
X003705Y006585D01*
X003705Y006663D02*
X004087Y006663D01*
X004107Y006742D02*
X003705Y006742D01*
X003680Y006820D02*
X003778Y006820D01*
X003733Y006838D02*
X003858Y006787D01*
X003992Y006787D01*
X004117Y006838D01*
X004212Y006933D01*
X004263Y007058D01*
X004263Y007192D01*
X004212Y007317D01*
X004117Y007412D01*
X003992Y007463D01*
X003858Y007463D01*
X003733Y007412D01*
X003661Y007339D01*
X003635Y007365D01*
X002665Y007365D01*
X002595Y007295D01*
X002595Y006955D01*
X002665Y006885D01*
X003635Y006885D01*
X003661Y006911D01*
X003733Y006838D01*
X003673Y006899D02*
X003648Y006899D01*
X004072Y006820D02*
X004142Y006820D01*
X004177Y006899D02*
X004220Y006899D01*
X004230Y006977D02*
X004645Y006977D01*
X004645Y006955D02*
X004715Y006885D01*
X005685Y006885D01*
X005755Y006955D01*
X005755Y007295D01*
X005685Y007365D01*
X004715Y007365D01*
X004645Y007295D01*
X004645Y006955D01*
X004630Y006899D02*
X004702Y006899D01*
X004645Y007056D02*
X004262Y007056D01*
X004263Y007134D02*
X004645Y007134D01*
X004645Y007213D02*
X004255Y007213D01*
X004222Y007291D02*
X004645Y007291D01*
X004715Y007385D02*
X005685Y007385D01*
X005725Y007425D01*
X006133Y007425D01*
X006250Y007542D01*
X006508Y007800D01*
X007102Y007800D01*
X007135Y007722D01*
X007272Y007585D01*
X007453Y007510D01*
X007647Y007510D01*
X007828Y007585D01*
X007965Y007722D01*
X008040Y007903D01*
X008040Y008097D01*
X007965Y008278D01*
X007828Y008415D01*
X007647Y008490D01*
X007453Y008490D01*
X007272Y008415D01*
X007135Y008278D01*
X007102Y008200D01*
X006349Y008200D01*
X006778Y008800D01*
X007102Y008800D01*
X007135Y008722D01*
X007272Y008585D01*
X007453Y008510D01*
X007647Y008510D01*
X007828Y008585D01*
X007965Y008722D01*
X008040Y008903D01*
X008040Y009097D01*
X007965Y009278D01*
X007828Y009415D01*
X007647Y009490D01*
X007453Y009490D01*
X007272Y009415D01*
X007135Y009278D01*
X007102Y009200D01*
X006739Y009200D01*
X006724Y009211D01*
X006658Y009200D01*
X006592Y009200D01*
X006579Y009187D01*
X006560Y009184D01*
X006522Y009130D01*
X006475Y009083D01*
X006475Y009064D01*
X005947Y008325D01*
X005725Y008325D01*
X005685Y008365D01*
X004715Y008365D01*
X004645Y008295D01*
X004645Y007955D01*
X004715Y007885D01*
X005685Y007885D01*
X005725Y007925D01*
X005986Y007925D01*
X006001Y007914D01*
X006067Y007925D01*
X005967Y007825D01*
X005725Y007825D01*
X005685Y007865D01*
X004715Y007865D01*
X004645Y007795D01*
X004645Y007455D01*
X004715Y007385D01*
X004652Y007448D02*
X004029Y007448D01*
X004159Y007370D02*
X007793Y007370D01*
X007793Y007411D02*
X007793Y007026D01*
X007725Y006958D01*
X007647Y006990D01*
X007453Y006990D01*
X007272Y006915D01*
X007135Y006778D01*
X007060Y006597D01*
X007060Y006403D01*
X007135Y006222D01*
X007272Y006085D01*
X007453Y006010D01*
X007647Y006010D01*
X007828Y006085D01*
X007965Y006222D01*
X008040Y006403D01*
X008040Y006597D01*
X008008Y006675D01*
X008102Y006769D01*
X008278Y006769D01*
X008348Y006839D01*
X008348Y007411D01*
X008278Y007481D01*
X007863Y007481D01*
X007793Y007411D01*
X007830Y007448D02*
X006156Y007448D01*
X006234Y007527D02*
X007413Y007527D01*
X007252Y007605D02*
X006313Y007605D01*
X006391Y007684D02*
X007174Y007684D01*
X007118Y007762D02*
X006470Y007762D01*
X006067Y007925D02*
X006067Y007925D01*
X006061Y007919D02*
X006031Y007919D01*
X005994Y007919D02*
X005719Y007919D01*
X005709Y007841D02*
X005983Y007841D01*
X006373Y008233D02*
X007116Y008233D01*
X007169Y008312D02*
X006429Y008312D01*
X006485Y008390D02*
X007247Y008390D01*
X007401Y008469D02*
X006541Y008469D01*
X006597Y008547D02*
X007363Y008547D01*
X007232Y008626D02*
X006653Y008626D01*
X006709Y008704D02*
X007153Y008704D01*
X007110Y008783D02*
X006765Y008783D01*
X006442Y009018D02*
X003705Y009018D01*
X003705Y009097D02*
X006489Y009097D01*
X006554Y009175D02*
X003705Y009175D01*
X003705Y009254D02*
X007125Y009254D01*
X007189Y009332D02*
X003668Y009332D01*
X003432Y009489D02*
X007450Y009489D01*
X007268Y009411D02*
X003378Y009411D01*
X003432Y009568D02*
X016160Y009568D01*
X016160Y009646D02*
X003432Y009646D01*
X003432Y009725D02*
X016160Y009725D01*
X016160Y009803D02*
X003432Y009803D01*
X003432Y009882D02*
X016160Y009882D01*
X016160Y009960D02*
X009418Y009960D01*
X009496Y010039D02*
X016160Y010039D01*
X016160Y010117D02*
X009500Y010117D01*
X009500Y010196D02*
X016160Y010196D01*
X016160Y010274D02*
X009500Y010274D01*
X009500Y010353D02*
X016160Y010353D01*
X016160Y010431D02*
X013886Y010431D01*
X013986Y010472D02*
X014203Y010689D01*
X014320Y010972D01*
X014320Y011278D01*
X014203Y011561D01*
X013986Y011778D01*
X013703Y011895D01*
X013397Y011895D01*
X013114Y011778D01*
X012897Y011561D01*
X012780Y011278D01*
X012780Y010972D01*
X012897Y010689D01*
X013114Y010472D01*
X013397Y010355D01*
X013703Y010355D01*
X013986Y010472D01*
X014023Y010510D02*
X016160Y010510D01*
X016160Y010588D02*
X014102Y010588D01*
X014180Y010667D02*
X016160Y010667D01*
X016160Y010745D02*
X014226Y010745D01*
X014258Y010824D02*
X016160Y010824D01*
X016160Y010902D02*
X014291Y010902D01*
X014320Y010981D02*
X016160Y010981D01*
X016160Y011059D02*
X014320Y011059D01*
X014320Y011138D02*
X016160Y011138D01*
X016160Y011216D02*
X014320Y011216D01*
X014313Y011295D02*
X016160Y011295D01*
X016160Y011373D02*
X014281Y011373D01*
X014248Y011452D02*
X016160Y011452D01*
X016160Y011530D02*
X014216Y011530D01*
X014155Y011609D02*
X016160Y011609D01*
X016160Y011687D02*
X014077Y011687D01*
X013998Y011766D02*
X016160Y011766D01*
X016160Y011844D02*
X013826Y011844D01*
X013274Y011844D02*
X009500Y011844D01*
X009500Y011766D02*
X013102Y011766D01*
X013023Y011687D02*
X009500Y011687D01*
X009500Y011609D02*
X012945Y011609D01*
X012884Y011530D02*
X009500Y011530D01*
X009500Y011452D02*
X012852Y011452D01*
X012819Y011373D02*
X009500Y011373D01*
X009500Y011295D02*
X012787Y011295D01*
X012780Y011216D02*
X009500Y011216D01*
X009500Y011138D02*
X012780Y011138D01*
X012780Y011059D02*
X009500Y011059D01*
X009500Y010981D02*
X012780Y010981D01*
X012809Y010902D02*
X009500Y010902D01*
X009500Y010824D02*
X012842Y010824D01*
X012874Y010745D02*
X009500Y010745D01*
X009500Y010667D02*
X012920Y010667D01*
X012998Y010588D02*
X009500Y010588D01*
X009500Y010510D02*
X013077Y010510D01*
X013214Y010431D02*
X009500Y010431D01*
X007650Y009489D02*
X016160Y009489D01*
X016160Y009411D02*
X007832Y009411D01*
X007911Y009332D02*
X015218Y009332D01*
X015233Y009338D02*
X015108Y009287D01*
X015013Y009192D01*
X014962Y009067D01*
X014962Y008933D01*
X015013Y008808D01*
X015108Y008713D01*
X015225Y008665D01*
X015225Y007258D01*
X015219Y007183D01*
X015225Y007176D01*
X015225Y007167D01*
X015278Y007114D01*
X015327Y007057D01*
X015336Y007056D01*
X015342Y007050D01*
X015417Y007050D01*
X016688Y006952D01*
X017002Y006625D01*
X017002Y006339D01*
X017072Y006269D01*
X017487Y006269D01*
X017557Y006339D01*
X017557Y006385D01*
X018543Y006385D01*
X018543Y006339D01*
X018613Y006269D01*
X019028Y006269D01*
X019098Y006339D01*
X019098Y006911D01*
X019028Y006981D01*
X018613Y006981D01*
X018543Y006911D01*
X018543Y006865D01*
X017557Y006865D01*
X017557Y006911D01*
X017487Y006981D01*
X017215Y006981D01*
X016928Y007280D01*
X016877Y007339D01*
X016871Y007339D01*
X016866Y007344D01*
X016789Y007346D01*
X015625Y007435D01*
X015625Y008901D01*
X015638Y008933D01*
X015638Y009067D01*
X015587Y009192D01*
X015492Y009287D01*
X015367Y009338D01*
X015233Y009338D01*
X015382Y009332D02*
X016160Y009332D01*
X016160Y009254D02*
X015525Y009254D01*
X015593Y009175D02*
X016160Y009175D01*
X016160Y009097D02*
X015626Y009097D01*
X015638Y009018D02*
X016160Y009018D01*
X016160Y008940D02*
X015638Y008940D01*
X015625Y008861D02*
X016160Y008861D01*
X016160Y008783D02*
X015625Y008783D01*
X015625Y008704D02*
X016160Y008704D01*
X016160Y008626D02*
X015625Y008626D01*
X015625Y008547D02*
X016160Y008547D01*
X016160Y008469D02*
X015625Y008469D01*
X015625Y008390D02*
X016160Y008390D01*
X016160Y008312D02*
X015625Y008312D01*
X015625Y008233D02*
X016160Y008233D01*
X016160Y008155D02*
X015625Y008155D01*
X015625Y008076D02*
X016160Y008076D01*
X016160Y007998D02*
X015625Y007998D01*
X015625Y007919D02*
X016160Y007919D01*
X016160Y007841D02*
X015625Y007841D01*
X015625Y007762D02*
X016160Y007762D01*
X016160Y007692D02*
X016242Y007610D01*
X016733Y007610D01*
X016815Y007692D01*
X016815Y007808D01*
X016815Y015192D01*
X016815Y015308D01*
X016733Y015390D01*
X016242Y015390D01*
X016160Y015308D01*
X016160Y007692D01*
X016169Y007684D02*
X015625Y007684D01*
X015625Y007605D02*
X017225Y007605D01*
X017225Y007527D02*
X015625Y007527D01*
X015625Y007448D02*
X017225Y007448D01*
X017273Y007370D02*
X016478Y007370D01*
X016918Y007291D02*
X018991Y007291D01*
X019032Y006977D02*
X019318Y006977D01*
X019252Y006899D02*
X019098Y006899D01*
X019098Y006820D02*
X019252Y006820D01*
X019252Y006742D02*
X019098Y006742D01*
X019098Y006663D02*
X019252Y006663D01*
X019252Y006585D02*
X019098Y006585D01*
X019098Y006506D02*
X019252Y006506D01*
X019252Y006428D02*
X019098Y006428D01*
X019098Y006349D02*
X019252Y006349D01*
X019320Y006271D02*
X019030Y006271D01*
X018612Y006271D02*
X017488Y006271D01*
X017557Y006349D02*
X018543Y006349D01*
X017961Y006114D02*
X011344Y006114D01*
X011340Y006192D02*
X031541Y006192D01*
X031250Y006428D02*
X032214Y006428D01*
X032212Y006506D02*
X031250Y006506D01*
X031250Y006585D02*
X031394Y006585D01*
X031334Y006663D02*
X031250Y006663D01*
X031250Y006742D02*
X031334Y006742D01*
X031334Y006820D02*
X031250Y006820D01*
X031250Y006899D02*
X031334Y006899D01*
X031334Y006977D02*
X031250Y006977D01*
X031250Y007056D02*
X031334Y007056D01*
X031334Y007134D02*
X031250Y007134D01*
X031250Y007213D02*
X031334Y007213D01*
X031334Y007291D02*
X031250Y007291D01*
X031250Y007370D02*
X031334Y007370D01*
X031334Y007448D02*
X031250Y007448D01*
X031250Y007527D02*
X031352Y007527D01*
X031250Y007605D02*
X032412Y007605D01*
X032422Y007527D02*
X032495Y007527D01*
X032510Y007448D02*
X032578Y007448D01*
X032588Y007370D02*
X032661Y007370D01*
X032667Y007291D02*
X032744Y007291D01*
X032745Y007213D02*
X032819Y007213D01*
X032819Y007134D02*
X032750Y007134D01*
X032750Y007056D02*
X032819Y007056D01*
X032819Y006977D02*
X032750Y006977D01*
X032750Y006899D02*
X032819Y006899D01*
X032819Y006820D02*
X032750Y006820D01*
X032787Y006742D02*
X032819Y006742D01*
X032886Y006428D02*
X033070Y006428D01*
X032991Y006349D02*
X032853Y006349D01*
X032861Y006271D02*
X032799Y006271D01*
X033280Y006428D02*
X034280Y006428D01*
X034280Y006506D02*
X033515Y006506D01*
X033531Y006585D02*
X034280Y006585D01*
X034280Y006663D02*
X033531Y006663D01*
X033531Y006742D02*
X034280Y006742D01*
X034280Y006820D02*
X033531Y006820D01*
X033531Y006899D02*
X034280Y006899D01*
X034280Y006977D02*
X033531Y006977D01*
X033531Y007056D02*
X034280Y007056D01*
X034280Y007134D02*
X033531Y007134D01*
X033531Y007213D02*
X034280Y007213D01*
X034280Y007291D02*
X033531Y007291D01*
X033515Y007370D02*
X034280Y007370D01*
X034280Y007448D02*
X033156Y007448D01*
X033077Y007527D02*
X034280Y007527D01*
X034280Y007605D02*
X032994Y007605D01*
X032911Y007684D02*
X034280Y007684D01*
X034280Y007762D02*
X032828Y007762D01*
X032745Y007841D02*
X034280Y007841D01*
X034280Y007919D02*
X032664Y007919D01*
X032585Y007998D02*
X034280Y007998D01*
X034280Y008076D02*
X032507Y008076D01*
X032440Y008155D02*
X034280Y008155D01*
X034280Y008233D02*
X032440Y008233D01*
X032440Y008312D02*
X034280Y008312D01*
X034280Y008390D02*
X032440Y008390D01*
X032098Y007919D02*
X031250Y007919D01*
X031250Y007841D02*
X032177Y007841D01*
X032255Y007762D02*
X031250Y007762D01*
X031250Y007684D02*
X032334Y007684D01*
X031334Y007998D02*
X031250Y007998D01*
X031250Y008076D02*
X031334Y008076D01*
X031334Y008155D02*
X031250Y008155D01*
X031250Y008233D02*
X031334Y008233D01*
X031334Y008312D02*
X031250Y008312D01*
X031250Y008390D02*
X031334Y008390D01*
X031299Y008469D02*
X031250Y008469D01*
X031225Y009175D02*
X031158Y009175D01*
X031225Y009254D02*
X027375Y009254D01*
X027375Y009332D02*
X031225Y009332D01*
X031225Y009411D02*
X027375Y009411D01*
X027375Y009489D02*
X031225Y009489D01*
X031225Y009568D02*
X027375Y009568D01*
X027375Y009646D02*
X031225Y009646D01*
X031242Y009725D02*
X027375Y009725D01*
X027375Y009803D02*
X031320Y009803D01*
X033142Y011059D02*
X034280Y011059D01*
X034280Y010981D02*
X027375Y010981D01*
X027375Y010902D02*
X034280Y010902D01*
X034280Y010824D02*
X027375Y010824D01*
X027375Y010745D02*
X034280Y010745D01*
X034280Y010667D02*
X027375Y010667D01*
X027375Y010588D02*
X034280Y010588D01*
X034280Y010510D02*
X027375Y010510D01*
X027375Y010431D02*
X034280Y010431D01*
X034280Y010353D02*
X027375Y010353D01*
X027375Y010274D02*
X034280Y010274D01*
X034280Y010196D02*
X027375Y010196D01*
X027375Y010117D02*
X034280Y010117D01*
X034280Y010039D02*
X027375Y010039D01*
X027375Y009960D02*
X034280Y009960D01*
X034280Y009882D02*
X027375Y009882D01*
X023725Y009882D02*
X022250Y009882D01*
X022248Y009960D02*
X023699Y009960D01*
X023699Y010039D02*
X022169Y010039D01*
X021090Y010972D02*
X020953Y010835D01*
X020772Y010760D01*
X020578Y010760D01*
X020397Y010835D01*
X020260Y010972D01*
X020185Y011153D01*
X020185Y011347D01*
X020260Y011528D01*
X020397Y011665D01*
X020578Y011740D01*
X020772Y011740D01*
X020953Y011665D01*
X021090Y011528D01*
X021165Y011347D01*
X021165Y011153D01*
X021090Y010972D01*
X021094Y010981D02*
X023725Y010981D01*
X023725Y011059D02*
X021126Y011059D01*
X021159Y011138D02*
X023725Y011138D01*
X023725Y011216D02*
X021165Y011216D01*
X021165Y011295D02*
X023725Y011295D01*
X023725Y011373D02*
X021154Y011373D01*
X021122Y011452D02*
X023725Y011452D01*
X023725Y011530D02*
X021088Y011530D01*
X021009Y011609D02*
X023725Y011609D01*
X023725Y011687D02*
X020900Y011687D01*
X020450Y011687D02*
X019750Y011687D01*
X019750Y011609D02*
X020341Y011609D01*
X020262Y011530D02*
X019750Y011530D01*
X019750Y011452D02*
X020228Y011452D01*
X020196Y011373D02*
X019750Y011373D01*
X019750Y011295D02*
X020185Y011295D01*
X020185Y011216D02*
X019750Y011216D01*
X019750Y011138D02*
X020191Y011138D01*
X020224Y011059D02*
X019750Y011059D01*
X019750Y010981D02*
X020256Y010981D01*
X020330Y010902D02*
X019750Y010902D01*
X019750Y010824D02*
X020424Y010824D01*
X020926Y010824D02*
X023704Y010824D01*
X023699Y010745D02*
X019750Y010745D01*
X019750Y010667D02*
X023699Y010667D01*
X023699Y010588D02*
X019750Y010588D01*
X019750Y010510D02*
X023699Y010510D01*
X023699Y010431D02*
X019750Y010431D01*
X019750Y010353D02*
X023699Y010353D01*
X023699Y010274D02*
X019750Y010274D01*
X019891Y010196D02*
X023699Y010196D01*
X023699Y010117D02*
X020049Y010117D01*
X021020Y010902D02*
X023725Y010902D01*
X023725Y011766D02*
X019750Y011766D01*
X019750Y011844D02*
X023725Y011844D01*
X023708Y011923D02*
X019750Y011923D01*
X019750Y012001D02*
X023699Y012001D01*
X023699Y012080D02*
X019750Y012080D01*
X019750Y012158D02*
X023699Y012158D01*
X023699Y012237D02*
X019750Y012237D01*
X019750Y012315D02*
X023699Y012315D01*
X023699Y012394D02*
X019750Y012394D01*
X019750Y012472D02*
X023699Y012472D01*
X023696Y012551D02*
X019750Y012551D01*
X019750Y012629D02*
X023685Y012629D01*
X023699Y012708D02*
X019750Y012708D01*
X019750Y012786D02*
X023699Y012786D01*
X023725Y012865D02*
X019750Y012865D01*
X019750Y012943D02*
X023725Y012943D01*
X023725Y013022D02*
X019750Y013022D01*
X019750Y013100D02*
X023725Y013100D01*
X023725Y013179D02*
X019750Y013179D01*
X019750Y013257D02*
X023725Y013257D01*
X023725Y013336D02*
X019841Y013336D01*
X019955Y013414D02*
X023725Y013414D01*
X023725Y013493D02*
X020031Y013493D01*
X020064Y013571D02*
X023725Y013571D01*
X023725Y013650D02*
X020096Y013650D01*
X020100Y013728D02*
X023725Y013728D01*
X023725Y013807D02*
X020100Y013807D01*
X020082Y013885D02*
X023725Y013885D01*
X023725Y013964D02*
X020049Y013964D01*
X019999Y014042D02*
X023725Y014042D01*
X023725Y014121D02*
X019920Y014121D01*
X019758Y014199D02*
X023725Y014199D01*
X023725Y014278D02*
X019680Y014278D01*
X019891Y014356D02*
X023725Y014356D01*
X023725Y014435D02*
X019975Y014435D01*
X020040Y014513D02*
X023725Y014513D01*
X023734Y014592D02*
X020072Y014592D01*
X020100Y014670D02*
X023812Y014670D01*
X020100Y014749D02*
X033088Y014749D01*
X033163Y014670D02*
X033240Y014670D01*
X033241Y014592D02*
X034280Y014592D01*
X034280Y014670D02*
X033860Y014670D01*
X034012Y014749D02*
X034280Y014749D01*
X034280Y014827D02*
X034091Y014827D01*
X034169Y014906D02*
X034280Y014906D01*
X034280Y014984D02*
X034221Y014984D01*
X034254Y015063D02*
X034280Y015063D01*
X034280Y014513D02*
X033250Y014513D01*
X033250Y014435D02*
X034280Y014435D01*
X034280Y014356D02*
X033250Y014356D01*
X033250Y014278D02*
X034280Y014278D01*
X034280Y014199D02*
X033250Y014199D01*
X033250Y014121D02*
X034280Y014121D01*
X034280Y014042D02*
X033250Y014042D01*
X033250Y013964D02*
X034280Y013964D01*
X034280Y013885D02*
X033250Y013885D01*
X033250Y013807D02*
X034280Y013807D01*
X034280Y013728D02*
X033250Y013728D01*
X033250Y013650D02*
X034280Y013650D01*
X034280Y013571D02*
X033250Y013571D01*
X033250Y013493D02*
X034280Y013493D01*
X034280Y013414D02*
X033250Y013414D01*
X033250Y013336D02*
X034280Y013336D01*
X034280Y013257D02*
X033250Y013257D01*
X033250Y013179D02*
X034280Y013179D01*
X034280Y013100D02*
X033250Y013100D01*
X033250Y013022D02*
X034280Y013022D01*
X034280Y012943D02*
X033250Y012943D01*
X033250Y012865D02*
X034280Y012865D01*
X034280Y012786D02*
X033250Y012786D01*
X033250Y012708D02*
X034280Y012708D01*
X034280Y012629D02*
X033250Y012629D01*
X033250Y012551D02*
X034280Y012551D01*
X034280Y012472D02*
X033250Y012472D01*
X033250Y012394D02*
X034280Y012394D01*
X034280Y012315D02*
X033250Y012315D01*
X033250Y012237D02*
X034280Y012237D01*
X034280Y012158D02*
X033250Y012158D01*
X033250Y012080D02*
X034280Y012080D01*
X034280Y012001D02*
X033250Y012001D01*
X033250Y011923D02*
X034280Y011923D01*
X034280Y011844D02*
X033250Y011844D01*
X033250Y011766D02*
X034280Y011766D01*
X034280Y011687D02*
X033250Y011687D01*
X033250Y011609D02*
X034280Y011609D01*
X034280Y011530D02*
X033250Y011530D01*
X033250Y011452D02*
X034280Y011452D01*
X034280Y011373D02*
X033250Y011373D01*
X033250Y011295D02*
X034280Y011295D01*
X034280Y011216D02*
X033250Y011216D01*
X033220Y011138D02*
X034280Y011138D01*
X034280Y009803D02*
X034155Y009803D01*
X034233Y009725D02*
X034280Y009725D01*
X034280Y009646D02*
X034250Y009646D01*
X034250Y009568D02*
X034280Y009568D01*
X034280Y009489D02*
X034250Y009489D01*
X034250Y009411D02*
X034280Y009411D01*
X034280Y009332D02*
X034250Y009332D01*
X034250Y009254D02*
X034280Y009254D01*
X034280Y009175D02*
X034250Y009175D01*
X034250Y009097D02*
X034280Y009097D01*
X034280Y009018D02*
X034250Y009018D01*
X034250Y008940D02*
X034280Y008940D01*
X034280Y008861D02*
X034250Y008861D01*
X034250Y008783D02*
X034280Y008783D01*
X034280Y008704D02*
X034250Y008704D01*
X034250Y008626D02*
X034280Y008626D01*
X034280Y008547D02*
X034250Y008547D01*
X034280Y008469D02*
X034176Y008469D01*
X034280Y006349D02*
X033359Y006349D01*
X033489Y006271D02*
X034280Y006271D01*
X034280Y006192D02*
X033531Y006192D01*
X033531Y006114D02*
X034280Y006114D01*
X034280Y006035D02*
X033531Y006035D01*
X033531Y005957D02*
X034280Y005957D01*
X034280Y005878D02*
X033531Y005878D01*
X033517Y005800D02*
X034280Y005800D01*
X034280Y005721D02*
X019259Y005721D01*
X019738Y006271D02*
X032301Y006271D01*
X032247Y006349D02*
X031182Y006349D01*
X034280Y005643D02*
X010796Y005643D01*
X010852Y005721D02*
X011171Y005721D01*
X011093Y005800D02*
X010885Y005800D01*
X010888Y005878D02*
X011014Y005878D01*
X010936Y005957D02*
X010882Y005957D01*
X010857Y006035D02*
X010850Y006035D01*
X010833Y006114D02*
X010790Y006114D01*
X010760Y006192D02*
X010668Y006192D01*
X010727Y006271D02*
X009980Y006271D01*
X010266Y006192D02*
X010432Y006192D01*
X010712Y006349D02*
X009138Y006349D01*
X009138Y006271D02*
X009236Y006271D01*
X009212Y006192D02*
X009138Y006192D01*
X009138Y006127D02*
X009067Y006057D01*
X008417Y006057D01*
X008346Y006127D01*
X008346Y006621D01*
X008417Y006691D01*
X008542Y006691D01*
X008542Y006799D01*
X008502Y006839D01*
X008502Y007411D01*
X008572Y007481D01*
X008987Y007481D01*
X009057Y007411D01*
X009057Y006839D01*
X008987Y006769D01*
X008942Y006769D01*
X008942Y006691D01*
X009067Y006691D01*
X009138Y006621D01*
X009138Y006127D01*
X009124Y006114D02*
X009212Y006114D01*
X009212Y006035D02*
X007708Y006035D01*
X007856Y006114D02*
X008360Y006114D01*
X008346Y006192D02*
X007935Y006192D01*
X007985Y006271D02*
X008346Y006271D01*
X008346Y006349D02*
X008018Y006349D01*
X008040Y006428D02*
X008346Y006428D01*
X008346Y006506D02*
X008040Y006506D01*
X008040Y006585D02*
X008346Y006585D01*
X008389Y006663D02*
X008013Y006663D01*
X008074Y006742D02*
X008542Y006742D01*
X008521Y006820D02*
X008329Y006820D01*
X008348Y006899D02*
X008502Y006899D01*
X008502Y006977D02*
X008348Y006977D01*
X008348Y007056D02*
X008502Y007056D01*
X008502Y007134D02*
X008348Y007134D01*
X008348Y007213D02*
X008502Y007213D01*
X008502Y007291D02*
X008348Y007291D01*
X008348Y007370D02*
X008502Y007370D01*
X008539Y007448D02*
X008311Y007448D01*
X007926Y007684D02*
X015225Y007684D01*
X015225Y007762D02*
X007982Y007762D01*
X008014Y007841D02*
X015225Y007841D01*
X015225Y007919D02*
X008040Y007919D01*
X008040Y007998D02*
X015225Y007998D01*
X015225Y008076D02*
X008040Y008076D01*
X008016Y008155D02*
X015225Y008155D01*
X015225Y008233D02*
X007984Y008233D01*
X007931Y008312D02*
X015225Y008312D01*
X015225Y008390D02*
X007853Y008390D01*
X007699Y008469D02*
X015225Y008469D01*
X015225Y008547D02*
X007737Y008547D01*
X007868Y008626D02*
X015225Y008626D01*
X015131Y008704D02*
X007947Y008704D01*
X007990Y008783D02*
X015039Y008783D01*
X014992Y008861D02*
X008023Y008861D01*
X008040Y008940D02*
X014962Y008940D01*
X014962Y009018D02*
X008040Y009018D01*
X008040Y009097D02*
X014974Y009097D01*
X015007Y009175D02*
X008008Y009175D01*
X007975Y009254D02*
X015075Y009254D01*
X016815Y009254D02*
X017225Y009254D01*
X017225Y009332D02*
X016815Y009332D01*
X016815Y009411D02*
X017225Y009411D01*
X017225Y009489D02*
X016815Y009489D01*
X016815Y009568D02*
X017225Y009568D01*
X017225Y009646D02*
X016815Y009646D01*
X016815Y009725D02*
X017225Y009725D01*
X017225Y009803D02*
X016815Y009803D01*
X016815Y009882D02*
X017225Y009882D01*
X017225Y009960D02*
X016815Y009960D01*
X016815Y010039D02*
X017225Y010039D01*
X017225Y010117D02*
X016815Y010117D01*
X016815Y010196D02*
X017225Y010196D01*
X017225Y010274D02*
X016815Y010274D01*
X016815Y010353D02*
X017225Y010353D01*
X017225Y010431D02*
X016815Y010431D01*
X016815Y010510D02*
X017225Y010510D01*
X017225Y010588D02*
X016815Y010588D01*
X016815Y010667D02*
X017225Y010667D01*
X017225Y010745D02*
X016815Y010745D01*
X016815Y010824D02*
X017225Y010824D01*
X017225Y010902D02*
X016815Y010902D01*
X016815Y010981D02*
X017225Y010981D01*
X017225Y011059D02*
X016815Y011059D01*
X016815Y011138D02*
X017225Y011138D01*
X017225Y011216D02*
X016815Y011216D01*
X016815Y011295D02*
X017225Y011295D01*
X017225Y011373D02*
X016815Y011373D01*
X016815Y011452D02*
X017225Y011452D01*
X017225Y011530D02*
X016815Y011530D01*
X016815Y011609D02*
X017225Y011609D01*
X017225Y011687D02*
X016815Y011687D01*
X016815Y011766D02*
X017225Y011766D01*
X017225Y011844D02*
X016815Y011844D01*
X016815Y011923D02*
X017225Y011923D01*
X017225Y012001D02*
X016815Y012001D01*
X016815Y012080D02*
X017225Y012080D01*
X017225Y012158D02*
X016815Y012158D01*
X016815Y012237D02*
X017225Y012237D01*
X017225Y012315D02*
X016815Y012315D01*
X016815Y012394D02*
X017225Y012394D01*
X017225Y012472D02*
X016815Y012472D01*
X016815Y012551D02*
X017225Y012551D01*
X017225Y012629D02*
X016815Y012629D01*
X016815Y012708D02*
X017225Y012708D01*
X017225Y012786D02*
X016815Y012786D01*
X016815Y012865D02*
X017225Y012865D01*
X017225Y012943D02*
X016815Y012943D01*
X016815Y013022D02*
X017225Y013022D01*
X017225Y013100D02*
X016815Y013100D01*
X016815Y013179D02*
X017225Y013179D01*
X017225Y013257D02*
X016815Y013257D01*
X016815Y013336D02*
X017225Y013336D01*
X017225Y013414D02*
X016815Y013414D01*
X016815Y013493D02*
X017225Y013493D01*
X017225Y013571D02*
X016815Y013571D01*
X016815Y013650D02*
X017225Y013650D01*
X017225Y013728D02*
X016815Y013728D01*
X016815Y013807D02*
X017225Y013807D01*
X017225Y013885D02*
X016815Y013885D01*
X016815Y013964D02*
X017225Y013964D01*
X017225Y014042D02*
X016815Y014042D01*
X016815Y014121D02*
X017225Y014121D01*
X017225Y014199D02*
X016815Y014199D01*
X016815Y014278D02*
X017295Y014278D01*
X016815Y014356D02*
X018709Y014356D01*
X018625Y014435D02*
X016815Y014435D01*
X016815Y014513D02*
X018560Y014513D01*
X018528Y014592D02*
X016815Y014592D01*
X016815Y014670D02*
X018500Y014670D01*
X018500Y014749D02*
X016815Y014749D01*
X016815Y014827D02*
X018500Y014827D01*
X018527Y014906D02*
X016815Y014906D01*
X016815Y014984D02*
X018559Y014984D01*
X018622Y015063D02*
X016815Y015063D01*
X016815Y015141D02*
X018063Y015141D01*
X017888Y015220D02*
X016815Y015220D01*
X016815Y015298D02*
X017809Y015298D01*
X017748Y015377D02*
X016746Y015377D01*
X016229Y015377D02*
X009250Y015377D01*
X009250Y015455D02*
X017715Y015455D01*
X017685Y015534D02*
X009250Y015534D01*
X009250Y015612D02*
X017685Y015612D01*
X017685Y015691D02*
X009250Y015691D01*
X009250Y015769D02*
X017704Y015769D01*
X017737Y015848D02*
X009250Y015848D01*
X009250Y015926D02*
X017783Y015926D01*
X017862Y016005D02*
X009203Y016005D01*
X009410Y015298D02*
X016160Y015298D01*
X016160Y015220D02*
X009488Y015220D01*
X009500Y015141D02*
X016160Y015141D01*
X016160Y015063D02*
X009500Y015063D01*
X009500Y014984D02*
X016160Y014984D01*
X016160Y014906D02*
X009500Y014906D01*
X009500Y014827D02*
X016160Y014827D01*
X016160Y014749D02*
X009500Y014749D01*
X009500Y014670D02*
X016160Y014670D01*
X016160Y014592D02*
X009500Y014592D01*
X009500Y014513D02*
X016160Y014513D01*
X016160Y014435D02*
X009500Y014435D01*
X009500Y014356D02*
X016160Y014356D01*
X016160Y014278D02*
X009500Y014278D01*
X009500Y014199D02*
X016160Y014199D01*
X016160Y014121D02*
X009500Y014121D01*
X009500Y014042D02*
X016160Y014042D01*
X016160Y013964D02*
X009500Y013964D01*
X009500Y013885D02*
X016160Y013885D01*
X016160Y013807D02*
X009500Y013807D01*
X009500Y013728D02*
X016160Y013728D01*
X016160Y013650D02*
X009500Y013650D01*
X009500Y013571D02*
X016160Y013571D01*
X016160Y013493D02*
X009500Y013493D01*
X009500Y013414D02*
X016160Y013414D01*
X016160Y013336D02*
X009500Y013336D01*
X009500Y013257D02*
X016160Y013257D01*
X016160Y013179D02*
X009500Y013179D01*
X009500Y013100D02*
X016160Y013100D01*
X016160Y013022D02*
X009500Y013022D01*
X009500Y012943D02*
X016160Y012943D01*
X016160Y012865D02*
X009500Y012865D01*
X009500Y012786D02*
X016160Y012786D01*
X016160Y012708D02*
X009500Y012708D01*
X009500Y012629D02*
X016160Y012629D01*
X016160Y012551D02*
X009500Y012551D01*
X009500Y012472D02*
X016160Y012472D01*
X016160Y012394D02*
X009500Y012394D01*
X009500Y012315D02*
X016160Y012315D01*
X016160Y012237D02*
X009500Y012237D01*
X009500Y012158D02*
X016160Y012158D01*
X016160Y012080D02*
X009500Y012080D01*
X009500Y012001D02*
X016160Y012001D01*
X016160Y011923D02*
X009500Y011923D01*
X006850Y011923D02*
X004690Y011923D01*
X004633Y012001D02*
X006850Y012001D01*
X006850Y012080D02*
X004558Y012080D01*
X004749Y011844D02*
X006850Y011844D01*
X006850Y011766D02*
X004808Y011766D01*
X004868Y011687D02*
X006850Y011687D01*
X006850Y011609D02*
X004927Y011609D01*
X004986Y011530D02*
X006850Y011530D01*
X006850Y011452D02*
X005035Y011452D01*
X005053Y011373D02*
X006850Y011373D01*
X006850Y011295D02*
X005050Y011295D01*
X005050Y011216D02*
X006850Y011216D01*
X006850Y011138D02*
X006067Y011138D01*
X006125Y011059D02*
X006850Y011059D01*
X006238Y010981D02*
X006125Y010981D01*
X005353Y011138D02*
X005167Y011138D01*
X005225Y011059D02*
X005295Y011059D01*
X005295Y010981D02*
X005225Y010981D01*
X005225Y010902D02*
X005295Y010902D01*
X005295Y010824D02*
X005225Y010824D01*
X005225Y010745D02*
X005295Y010745D01*
X005295Y010667D02*
X005225Y010667D01*
X005225Y010588D02*
X005295Y010588D01*
X005295Y010510D02*
X005225Y010510D01*
X005225Y010431D02*
X005295Y010431D01*
X005295Y010353D02*
X005225Y010353D01*
X005225Y010274D02*
X005295Y010274D01*
X005295Y010196D02*
X005225Y010196D01*
X004395Y010196D02*
X003375Y010196D01*
X003375Y010274D02*
X004395Y010274D01*
X004395Y010353D02*
X003375Y010353D01*
X003375Y010431D02*
X004395Y010431D01*
X004395Y010510D02*
X003375Y010510D01*
X003375Y010588D02*
X004395Y010588D01*
X004395Y010667D02*
X003375Y010667D01*
X003375Y010745D02*
X004395Y010745D01*
X004395Y010824D02*
X003375Y010824D01*
X003375Y010902D02*
X004395Y010902D01*
X004395Y010981D02*
X003375Y010981D01*
X003375Y011059D02*
X004395Y011059D01*
X004453Y011138D02*
X003375Y011138D01*
X003375Y011216D02*
X004570Y011216D01*
X004562Y011295D02*
X003375Y011295D01*
X003375Y011373D02*
X004503Y011373D01*
X004444Y011452D02*
X003375Y011452D01*
X003375Y011530D02*
X004385Y011530D01*
X004325Y011609D02*
X003375Y011609D01*
X002975Y011609D02*
X002939Y011609D01*
X002939Y011530D02*
X002975Y011530D01*
X002975Y011452D02*
X002939Y011452D01*
X002939Y011373D02*
X002975Y011373D01*
X002975Y011295D02*
X002889Y011295D01*
X002975Y011216D02*
X001299Y011216D01*
X001377Y011295D02*
X001961Y011295D01*
X001911Y011766D02*
X000315Y011766D01*
X000315Y011844D02*
X001911Y011844D01*
X001918Y011923D02*
X000315Y011923D01*
X000315Y012001D02*
X002345Y012001D01*
X002303Y012080D02*
X000315Y012080D01*
X000315Y012158D02*
X002293Y012158D01*
X002293Y012237D02*
X000315Y012237D01*
X000315Y012315D02*
X002293Y012315D01*
X002293Y012394D02*
X000315Y012394D01*
X000315Y012472D02*
X002293Y012472D01*
X002293Y012551D02*
X000315Y012551D01*
X000315Y012629D02*
X002293Y012629D01*
X002340Y012708D02*
X000315Y012708D01*
X000315Y012786D02*
X003930Y012786D01*
X003930Y012708D02*
X002802Y012708D01*
X002848Y012629D02*
X003971Y012629D01*
X004000Y012600D02*
X005600Y012600D01*
X005670Y012670D01*
X005670Y013560D01*
X005600Y013630D01*
X004000Y013630D01*
X003930Y013560D01*
X003930Y012670D01*
X004000Y012600D01*
X003930Y012865D02*
X000315Y012865D01*
X000315Y012943D02*
X003930Y012943D01*
X003930Y013022D02*
X000315Y013022D01*
X000315Y013100D02*
X003930Y013100D01*
X003930Y013179D02*
X000315Y013179D01*
X000315Y013257D02*
X003930Y013257D01*
X003930Y013336D02*
X000315Y013336D01*
X000315Y013414D02*
X003930Y013414D01*
X003930Y013493D02*
X000315Y013493D01*
X000315Y013571D02*
X003941Y013571D01*
X002848Y012551D02*
X006850Y012551D01*
X006850Y012629D02*
X005629Y012629D01*
X005670Y012708D02*
X006850Y012708D01*
X006850Y012786D02*
X005670Y012786D01*
X005670Y012865D02*
X006850Y012865D01*
X006850Y012943D02*
X005670Y012943D01*
X005670Y013022D02*
X006850Y013022D01*
X006850Y013100D02*
X005670Y013100D01*
X005670Y013179D02*
X006850Y013179D01*
X006850Y013257D02*
X005670Y013257D01*
X005670Y013336D02*
X006850Y013336D01*
X006850Y013414D02*
X005670Y013414D01*
X005670Y013493D02*
X006850Y013493D01*
X006850Y013571D02*
X005659Y013571D01*
X006850Y013650D02*
X000315Y013650D01*
X000315Y013728D02*
X006850Y013728D01*
X006850Y013807D02*
X000315Y013807D01*
X000315Y013885D02*
X006850Y013885D01*
X006850Y013964D02*
X000315Y013964D01*
X000315Y014042D02*
X006850Y014042D01*
X006850Y012472D02*
X002848Y012472D01*
X002848Y012394D02*
X006850Y012394D01*
X006850Y012315D02*
X002848Y012315D01*
X002848Y012237D02*
X006850Y012237D01*
X006850Y012158D02*
X002848Y012158D01*
X001204Y011687D02*
X000315Y011687D01*
X000315Y011609D02*
X001126Y011609D01*
X001047Y011530D02*
X000315Y011530D01*
X000315Y011452D02*
X000969Y011452D01*
X000890Y011373D02*
X000315Y011373D01*
X000315Y011295D02*
X000812Y011295D01*
X000645Y011216D02*
X000315Y011216D01*
X000315Y011138D02*
X000495Y011138D01*
X000416Y011059D02*
X000315Y011059D01*
X000315Y010981D02*
X000365Y010981D01*
X000333Y010902D02*
X000315Y010902D01*
X000315Y010588D02*
X000337Y010588D01*
X000315Y010510D02*
X000369Y010510D01*
X000315Y010431D02*
X000426Y010431D01*
X000505Y010353D02*
X000315Y010353D01*
X000315Y010274D02*
X000669Y010274D01*
X000595Y010196D02*
X000315Y010196D01*
X000315Y010117D02*
X000474Y010117D01*
X000396Y010039D02*
X000315Y010039D01*
X000315Y009960D02*
X000357Y009960D01*
X000324Y009882D02*
X000315Y009882D01*
X000931Y010274D02*
X002975Y010274D01*
X002975Y010196D02*
X001005Y010196D01*
X001126Y010117D02*
X002975Y010117D01*
X002879Y010039D02*
X001204Y010039D01*
X001243Y009960D02*
X002877Y009960D01*
X002877Y009882D02*
X001326Y009882D01*
X001405Y009803D02*
X002877Y009803D01*
X002877Y009725D02*
X001483Y009725D01*
X001562Y009646D02*
X002877Y009646D01*
X002877Y009568D02*
X001625Y009568D01*
X001625Y009489D02*
X002877Y009489D01*
X002930Y009411D02*
X001625Y009411D01*
X001625Y009332D02*
X001964Y009332D01*
X001944Y009254D02*
X001625Y009254D01*
X001625Y009175D02*
X001944Y009175D01*
X001944Y009097D02*
X001625Y009097D01*
X001625Y009018D02*
X001944Y009018D01*
X001944Y008940D02*
X001625Y008940D01*
X001625Y008861D02*
X001980Y008861D01*
X002014Y008673D02*
X001944Y008603D01*
X001944Y008188D01*
X002014Y008118D01*
X002100Y008118D01*
X002100Y008028D01*
X002013Y007942D01*
X001962Y007817D01*
X001962Y007683D01*
X002013Y007558D01*
X002108Y007463D01*
X002233Y007412D01*
X002367Y007412D01*
X002399Y007425D01*
X002625Y007425D01*
X002665Y007385D01*
X003635Y007385D01*
X003705Y007455D01*
X003705Y007795D01*
X003635Y007865D01*
X002665Y007865D01*
X002632Y007832D01*
X002587Y007942D01*
X002500Y008028D01*
X002500Y008118D01*
X002586Y008118D01*
X002595Y008127D01*
X002595Y007955D01*
X002665Y007885D01*
X003635Y007885D01*
X003675Y007925D01*
X004022Y007925D01*
X004108Y007838D01*
X004233Y007787D01*
X004367Y007787D01*
X004492Y007838D01*
X004587Y007933D01*
X004638Y008058D01*
X004638Y008192D01*
X004587Y008317D01*
X004492Y008412D01*
X004367Y008463D01*
X004233Y008463D01*
X004108Y008412D01*
X004022Y008325D01*
X003675Y008325D01*
X003635Y008365D01*
X002665Y008365D01*
X002656Y008356D01*
X002656Y008394D01*
X002665Y008385D01*
X003635Y008385D01*
X003705Y008455D01*
X003705Y008795D01*
X003635Y008865D01*
X002665Y008865D01*
X002595Y008795D01*
X002595Y008664D01*
X002586Y008673D01*
X002014Y008673D01*
X001966Y008626D02*
X001625Y008626D01*
X001625Y008704D02*
X002595Y008704D01*
X002595Y008783D02*
X001625Y008783D01*
X001625Y008547D02*
X001944Y008547D01*
X001944Y008469D02*
X001625Y008469D01*
X001625Y008390D02*
X001944Y008390D01*
X001944Y008312D02*
X001625Y008312D01*
X001625Y008233D02*
X001944Y008233D01*
X001978Y008155D02*
X001625Y008155D01*
X001625Y008076D02*
X002100Y008076D01*
X002069Y007998D02*
X001625Y007998D01*
X001625Y007919D02*
X002004Y007919D01*
X001972Y007841D02*
X001625Y007841D01*
X001625Y007762D02*
X001962Y007762D01*
X001962Y007684D02*
X001625Y007684D01*
X001625Y007605D02*
X001994Y007605D01*
X002045Y007527D02*
X001625Y007527D01*
X001625Y007448D02*
X002146Y007448D01*
X002595Y007291D02*
X001625Y007291D01*
X001625Y007213D02*
X002595Y007213D01*
X002595Y007134D02*
X001625Y007134D01*
X001625Y007056D02*
X002595Y007056D01*
X002595Y006977D02*
X001625Y006977D01*
X001684Y006899D02*
X002652Y006899D01*
X002620Y006820D02*
X001763Y006820D01*
X001841Y006742D02*
X002595Y006742D01*
X002595Y006663D02*
X001920Y006663D01*
X001998Y006585D02*
X002595Y006585D01*
X002595Y006506D02*
X002077Y006506D01*
X002155Y006428D02*
X002623Y006428D01*
X002649Y006349D02*
X002234Y006349D01*
X001639Y005878D02*
X000315Y005878D01*
X000315Y005800D02*
X001718Y005800D01*
X001796Y005721D02*
X000315Y005721D01*
X000315Y005643D02*
X001875Y005643D01*
X001953Y005564D02*
X000315Y005564D01*
X000315Y005486D02*
X034280Y005486D01*
X034280Y005564D02*
X010683Y005564D01*
X010171Y005721D02*
X009971Y005721D01*
X010004Y005800D02*
X010093Y005800D01*
X009212Y005957D02*
X005755Y005957D01*
X005755Y006035D02*
X007392Y006035D01*
X007244Y006114D02*
X005755Y006114D01*
X005755Y006192D02*
X007165Y006192D01*
X007115Y006271D02*
X005755Y006271D01*
X005701Y006349D02*
X007082Y006349D01*
X007060Y006428D02*
X005727Y006428D01*
X005755Y006506D02*
X007060Y006506D01*
X007060Y006585D02*
X005755Y006585D01*
X005755Y006663D02*
X007087Y006663D01*
X007120Y006742D02*
X005755Y006742D01*
X005730Y006820D02*
X007177Y006820D01*
X007256Y006899D02*
X005698Y006899D01*
X005755Y006977D02*
X007421Y006977D01*
X007679Y006977D02*
X007744Y006977D01*
X007793Y007056D02*
X005755Y007056D01*
X005755Y007134D02*
X007793Y007134D01*
X007793Y007213D02*
X005755Y007213D01*
X005755Y007291D02*
X007793Y007291D01*
X007687Y007527D02*
X015225Y007527D01*
X015225Y007605D02*
X007848Y007605D01*
X009020Y007448D02*
X015225Y007448D01*
X015225Y007370D02*
X009057Y007370D01*
X009057Y007291D02*
X015225Y007291D01*
X015222Y007213D02*
X009057Y007213D01*
X009057Y007134D02*
X015258Y007134D01*
X015337Y007056D02*
X009057Y007056D01*
X009057Y006977D02*
X016365Y006977D01*
X016739Y006899D02*
X009057Y006899D01*
X009038Y006820D02*
X016815Y006820D01*
X016890Y006742D02*
X008942Y006742D01*
X009095Y006663D02*
X010862Y006663D01*
X010781Y006585D02*
X009138Y006585D01*
X009138Y006506D02*
X010738Y006506D01*
X010712Y006428D02*
X009138Y006428D01*
X011238Y006663D02*
X016966Y006663D01*
X017002Y006585D02*
X011319Y006585D01*
X011362Y006506D02*
X017002Y006506D01*
X017002Y006428D02*
X011388Y006428D01*
X011388Y006349D02*
X017002Y006349D01*
X017070Y006271D02*
X011373Y006271D01*
X006330Y008861D02*
X005689Y008861D01*
X005685Y008865D02*
X004715Y008865D01*
X004645Y008795D01*
X004645Y008455D01*
X004715Y008385D01*
X005685Y008385D01*
X005755Y008455D01*
X005755Y008795D01*
X005685Y008865D01*
X005755Y008783D02*
X006274Y008783D01*
X006218Y008704D02*
X005755Y008704D01*
X005755Y008626D02*
X006162Y008626D01*
X006106Y008547D02*
X005755Y008547D01*
X005755Y008469D02*
X006050Y008469D01*
X005994Y008390D02*
X005690Y008390D01*
X006386Y008940D02*
X003689Y008940D01*
X003639Y008861D02*
X004711Y008861D01*
X004645Y008783D02*
X003705Y008783D01*
X003705Y008704D02*
X004645Y008704D01*
X004645Y008626D02*
X003705Y008626D01*
X003705Y008547D02*
X004645Y008547D01*
X004645Y008469D02*
X003705Y008469D01*
X003640Y008390D02*
X004087Y008390D01*
X004513Y008390D02*
X004710Y008390D01*
X004662Y008312D02*
X004589Y008312D01*
X004621Y008233D02*
X004645Y008233D01*
X004638Y008155D02*
X004645Y008155D01*
X004638Y008076D02*
X004645Y008076D01*
X004645Y007998D02*
X004613Y007998D01*
X004572Y007919D02*
X004681Y007919D01*
X004691Y007841D02*
X004494Y007841D01*
X004645Y007762D02*
X003705Y007762D01*
X003705Y007684D02*
X004645Y007684D01*
X004645Y007605D02*
X003705Y007605D01*
X003705Y007527D02*
X004645Y007527D01*
X004106Y007841D02*
X003659Y007841D01*
X003669Y007919D02*
X004028Y007919D01*
X003821Y007448D02*
X003698Y007448D01*
X003691Y007370D02*
X001625Y007370D01*
X002628Y007841D02*
X002641Y007841D01*
X002631Y007919D02*
X002596Y007919D01*
X002595Y007998D02*
X002531Y007998D01*
X002500Y008076D02*
X002595Y008076D01*
X002656Y008390D02*
X002660Y008390D01*
X002661Y008861D02*
X002620Y008861D01*
X003432Y009960D02*
X006932Y009960D01*
X006854Y010039D02*
X003429Y010039D01*
X003375Y010117D02*
X006850Y010117D01*
X006850Y010196D02*
X006125Y010196D01*
X006125Y010274D02*
X006850Y010274D01*
X006850Y010353D02*
X006125Y010353D01*
X006125Y010431D02*
X006850Y010431D01*
X002975Y010431D02*
X001174Y010431D01*
X001231Y010510D02*
X002975Y010510D01*
X002975Y010588D02*
X001263Y010588D01*
X001290Y010667D02*
X002975Y010667D01*
X002975Y010745D02*
X001290Y010745D01*
X001290Y010824D02*
X002975Y010824D01*
X002975Y010902D02*
X001267Y010902D01*
X001235Y010981D02*
X002975Y010981D01*
X002975Y011059D02*
X001184Y011059D01*
X001220Y011138D02*
X002975Y011138D01*
X002975Y010353D02*
X001095Y010353D01*
X000522Y014121D02*
X000315Y014121D01*
X000315Y014199D02*
X000475Y014199D01*
X000475Y014278D02*
X000315Y014278D01*
X000315Y014356D02*
X000475Y014356D01*
X000475Y014435D02*
X000315Y014435D01*
X000315Y014513D02*
X000470Y014513D01*
X000460Y014592D02*
X000315Y014592D01*
X000315Y014670D02*
X000450Y014670D01*
X000440Y014749D02*
X000315Y014749D01*
X000315Y014827D02*
X000431Y014827D01*
X000421Y014906D02*
X000315Y014906D01*
X000315Y014984D02*
X000411Y014984D01*
X000401Y015063D02*
X000315Y015063D01*
X000315Y015141D02*
X000391Y015141D01*
X000382Y015220D02*
X000315Y015220D01*
X000315Y015298D02*
X000353Y015298D01*
X000321Y015377D02*
X000315Y015377D01*
X000315Y015612D02*
X000316Y015612D01*
X000315Y015691D02*
X000349Y015691D01*
X000381Y015769D02*
X000315Y015769D01*
X000315Y015848D02*
X000455Y015848D01*
X000475Y015926D02*
X000315Y015926D01*
X000315Y016005D02*
X000522Y016005D01*
X000315Y016083D02*
X018000Y016083D01*
X018350Y016083D02*
X033247Y016083D01*
X033091Y016005D02*
X018488Y016005D01*
X018567Y015926D02*
X033012Y015926D01*
X032934Y015848D02*
X018613Y015848D01*
X019194Y015769D02*
X032880Y015769D01*
X032847Y015691D02*
X019250Y015691D01*
X019299Y015612D02*
X032815Y015612D01*
X032782Y015534D02*
X019351Y015534D01*
X019404Y015455D02*
X032780Y015455D01*
X032780Y015377D02*
X019456Y015377D01*
X019508Y015298D02*
X032780Y015298D01*
X032781Y015220D02*
X019500Y015220D01*
X019898Y015141D02*
X032814Y015141D01*
X032846Y015063D02*
X019978Y015063D01*
X020041Y014984D02*
X032879Y014984D01*
X032931Y014906D02*
X020073Y014906D01*
X020100Y014827D02*
X033009Y014827D01*
X019080Y015220D02*
X018462Y015220D01*
X018541Y015298D02*
X019028Y015298D01*
X018975Y015377D02*
X018602Y015377D01*
X018702Y015141D02*
X018287Y015141D01*
X017225Y009175D02*
X016815Y009175D01*
X016815Y009097D02*
X017225Y009097D01*
X017225Y009018D02*
X016815Y009018D01*
X016815Y008940D02*
X017225Y008940D01*
X017225Y008861D02*
X016815Y008861D01*
X016815Y008783D02*
X017225Y008783D01*
X017225Y008704D02*
X016815Y008704D01*
X016815Y008626D02*
X017225Y008626D01*
X017225Y008547D02*
X016815Y008547D01*
X016815Y008469D02*
X017225Y008469D01*
X017225Y008390D02*
X016815Y008390D01*
X016815Y008312D02*
X017225Y008312D01*
X017225Y008233D02*
X016815Y008233D01*
X016815Y008155D02*
X017225Y008155D01*
X017225Y008076D02*
X016815Y008076D01*
X016815Y007998D02*
X017225Y007998D01*
X017225Y007919D02*
X016815Y007919D01*
X016815Y007841D02*
X017225Y007841D01*
X017225Y007762D02*
X016815Y007762D01*
X016806Y007684D02*
X017225Y007684D01*
X016992Y007213D02*
X022810Y007213D01*
X022810Y007291D02*
X019859Y007291D01*
X020035Y007370D02*
X022810Y007370D01*
X022810Y007134D02*
X017068Y007134D01*
X017143Y007056D02*
X022810Y007056D01*
X022810Y006977D02*
X019741Y006977D01*
X019807Y006899D02*
X022810Y006899D01*
X023290Y006899D02*
X023725Y006899D01*
X023725Y006977D02*
X023290Y006977D01*
X023290Y007056D02*
X023725Y007056D01*
X023725Y007134D02*
X023290Y007134D01*
X023290Y007213D02*
X023725Y007213D01*
X023725Y007291D02*
X023290Y007291D01*
X023290Y007370D02*
X023725Y007370D01*
X023725Y006820D02*
X023290Y006820D01*
X023290Y006742D02*
X023725Y006742D01*
X023725Y006663D02*
X023290Y006663D01*
X023290Y006651D02*
X023290Y006651D01*
X023290Y006585D02*
X023725Y006585D01*
X023725Y006506D02*
X023269Y006506D01*
X023213Y006428D02*
X023725Y006428D01*
X023793Y006349D02*
X019807Y006349D01*
X018609Y006977D02*
X017491Y006977D01*
X017557Y006899D02*
X018543Y006899D01*
X004699Y006349D02*
X004627Y006349D01*
X001561Y005957D02*
X000315Y005957D01*
X000315Y006035D02*
X001482Y006035D01*
X001404Y006114D02*
X000315Y006114D01*
X000315Y006192D02*
X001325Y006192D01*
X001247Y006271D02*
X000923Y006271D01*
X001092Y006349D02*
X001168Y006349D01*
X000677Y006271D02*
X000315Y006271D01*
X000315Y006349D02*
X000508Y006349D01*
X000430Y006428D02*
X000315Y006428D01*
X000315Y006506D02*
X000371Y006506D01*
X000338Y006585D02*
X000315Y006585D01*
X000315Y005407D02*
X034280Y005407D01*
D27*
X029406Y007750D02*
X024675Y007750D01*
X024675Y008750D01*
X024675Y009625D01*
X024055Y010375D01*
X024675Y009625D02*
X024675Y012625D01*
X024278Y012625D01*
X024278Y013625D01*
X024278Y012625D02*
X023925Y012625D01*
X024675Y012625D02*
X029175Y012625D01*
X029175Y012320D01*
X029175Y012625D02*
X029175Y013555D01*
X029175Y012625D02*
X031925Y012625D01*
X031800Y013555D01*
X031925Y012625D02*
X031800Y012320D01*
X024675Y008750D02*
X023050Y008750D01*
X023050Y006604D01*
X019529Y006625D01*
X018821Y006625D02*
X017279Y006625D01*
X018425Y007750D02*
X019425Y007750D01*
X018425Y007750D02*
X018425Y009750D01*
X019425Y009750D01*
X018425Y009750D02*
X018425Y011125D01*
X018425Y013750D01*
X019300Y013750D01*
X018800Y011125D02*
X018425Y011125D01*
X019425Y008750D02*
X023050Y008750D01*
X006550Y010729D02*
X006375Y010760D01*
X005710Y010635D01*
X004810Y010635D02*
X004810Y011365D01*
X004425Y011875D01*
X003050Y011875D01*
X002590Y011875D01*
X002590Y011500D01*
X002425Y011630D01*
X002590Y011875D02*
X002571Y012375D01*
D28*
X003050Y011875D02*
X003175Y011750D01*
X003175Y010000D01*
X003154Y009854D01*
X003154Y009750D01*
X003135Y009140D01*
X002336Y009140D01*
X002300Y009104D01*
X003135Y009140D02*
X003150Y009125D01*
X002300Y008396D02*
X002300Y007750D01*
X002425Y007625D01*
X003150Y007625D01*
X003150Y007125D02*
X003925Y007125D01*
X004425Y006625D02*
X005200Y006625D01*
X005200Y006125D02*
X004825Y005750D01*
X002050Y005750D01*
X001050Y006750D01*
X000800Y006750D01*
X001425Y006875D02*
X001425Y009500D01*
X001175Y009750D01*
X000800Y009750D01*
X000800Y010750D02*
X000800Y011000D01*
X001300Y011500D01*
X002295Y011500D01*
X002425Y011630D01*
X006550Y010729D02*
X007029Y010729D01*
X007550Y011250D01*
X007925Y010875D01*
X008300Y011125D01*
X007550Y011250D02*
X007550Y015250D01*
X007480Y015320D01*
X006925Y015320D01*
X008620Y015320D01*
X008675Y015375D01*
X008795Y015500D01*
X009050Y015553D02*
X000675Y015553D01*
X000675Y015711D02*
X009050Y015711D01*
X009050Y015870D02*
X000675Y015870D01*
X000675Y015875D02*
X009050Y015875D01*
X009050Y015125D01*
X009300Y015125D01*
X009300Y010125D01*
X007050Y010125D01*
X007050Y012680D01*
X007267Y012680D01*
X007361Y012773D01*
X007361Y014087D01*
X007267Y014181D01*
X007050Y014181D01*
X007050Y014250D01*
X005354Y014250D01*
X005354Y014298D01*
X005260Y014391D01*
X004340Y014391D01*
X004246Y014298D01*
X004246Y014250D01*
X000675Y014250D01*
X000675Y015875D01*
X000675Y015394D02*
X009050Y015394D01*
X009050Y015236D02*
X000675Y015236D01*
X000675Y015077D02*
X009300Y015077D01*
X009300Y014919D02*
X000675Y014919D01*
X000675Y014760D02*
X009300Y014760D01*
X009300Y014602D02*
X000675Y014602D01*
X000675Y014443D02*
X009300Y014443D01*
X009300Y014285D02*
X005354Y014285D01*
X004246Y014285D02*
X000675Y014285D01*
X002675Y015320D02*
X004425Y015320D01*
X004800Y015255D01*
X004425Y015320D02*
X006925Y015320D01*
X007322Y014126D02*
X009300Y014126D01*
X009300Y013968D02*
X007361Y013968D01*
X007361Y013809D02*
X009300Y013809D01*
X009300Y013651D02*
X007361Y013651D01*
X007361Y013492D02*
X009300Y013492D01*
X009300Y013334D02*
X007361Y013334D01*
X007361Y013175D02*
X009300Y013175D01*
X009300Y013017D02*
X007361Y013017D01*
X007361Y012858D02*
X009300Y012858D01*
X009300Y012700D02*
X007287Y012700D01*
X007050Y012541D02*
X009300Y012541D01*
X009300Y012383D02*
X007050Y012383D01*
X007050Y012224D02*
X009300Y012224D01*
X009300Y012066D02*
X007050Y012066D01*
X007050Y011907D02*
X009300Y011907D01*
X009300Y011749D02*
X007050Y011749D01*
X007050Y011590D02*
X009300Y011590D01*
X009300Y011432D02*
X007050Y011432D01*
X007050Y011273D02*
X009300Y011273D01*
X009300Y011115D02*
X007050Y011115D01*
X007050Y010956D02*
X009300Y010956D01*
X009300Y010798D02*
X007050Y010798D01*
X007050Y010639D02*
X009300Y010639D01*
X009300Y010481D02*
X007050Y010481D01*
X007050Y010322D02*
X009300Y010322D01*
X009300Y010164D02*
X007050Y010164D01*
X006675Y009000D02*
X006050Y008125D01*
X005200Y008125D01*
X005200Y007625D02*
X006050Y007625D01*
X006425Y008000D01*
X007550Y008000D01*
X007550Y009000D02*
X006675Y009000D01*
X004300Y008125D02*
X003150Y008125D01*
X001425Y006875D02*
X002175Y006125D01*
X003150Y006125D01*
X007550Y006500D02*
X008071Y007021D01*
X008071Y007125D01*
X008742Y007088D02*
X008779Y007125D01*
X008742Y007088D02*
X008742Y006374D01*
X009608Y006000D02*
X010175Y006000D01*
X010300Y005875D01*
X010550Y005875D01*
X011050Y006125D02*
X011300Y005875D01*
X032925Y006000D01*
X033175Y006250D01*
X033175Y006021D01*
X032550Y006500D02*
X032550Y007125D01*
X032374Y007301D01*
X031887Y007301D01*
X032550Y007750D02*
X032946Y007375D01*
X033175Y007146D01*
X033175Y006729D01*
X032550Y007750D02*
X032137Y008163D01*
X031887Y008199D01*
X031425Y008625D02*
X031425Y009625D01*
X034050Y009625D01*
X034050Y008625D01*
X031425Y008625D01*
X031425Y008737D02*
X034050Y008737D01*
X034050Y008896D02*
X031425Y008896D01*
X031425Y009054D02*
X034050Y009054D01*
X034050Y009213D02*
X031425Y009213D01*
X031425Y009371D02*
X034050Y009371D01*
X034050Y009530D02*
X031425Y009530D01*
X031050Y009000D02*
X031050Y006500D01*
X023925Y006500D01*
X023925Y014500D01*
X025842Y014500D01*
X025730Y014454D01*
X025496Y014220D01*
X025370Y013915D01*
X025370Y013585D01*
X025496Y013280D01*
X025730Y013046D01*
X026035Y012920D01*
X026365Y012920D01*
X026670Y013046D01*
X026904Y013280D01*
X027030Y013585D01*
X027030Y013915D01*
X026904Y014220D01*
X026670Y014454D01*
X026558Y014500D01*
X033050Y014500D01*
X033050Y011250D01*
X027175Y011250D01*
X027175Y009000D01*
X031050Y009000D01*
X031050Y008896D02*
X027155Y008896D01*
X027155Y008915D02*
X027155Y008585D01*
X027029Y008280D01*
X026795Y008046D01*
X026490Y007920D01*
X026160Y007920D01*
X025855Y008046D01*
X025621Y008280D01*
X025495Y008585D01*
X025495Y008915D01*
X025621Y009220D01*
X025855Y009454D01*
X026160Y009580D01*
X026490Y009580D01*
X026795Y009454D01*
X027029Y009220D01*
X027155Y008915D01*
X027175Y009054D02*
X027097Y009054D01*
X027032Y009213D02*
X027175Y009213D01*
X027175Y009371D02*
X026878Y009371D01*
X026612Y009530D02*
X027175Y009530D01*
X027175Y009688D02*
X023925Y009688D01*
X023925Y009625D02*
X023925Y007625D01*
X020254Y007625D01*
X020265Y007651D01*
X020265Y007849D01*
X020189Y008033D01*
X020048Y008174D01*
X019864Y008250D01*
X019800Y008250D01*
X019800Y009250D01*
X019864Y009250D01*
X020048Y009326D01*
X020189Y009467D01*
X020265Y009651D01*
X020265Y009849D01*
X020254Y009875D01*
X022050Y009875D01*
X022050Y009750D01*
X021925Y009750D01*
X021925Y009625D01*
X023925Y009625D01*
X023925Y009530D02*
X020215Y009530D01*
X020265Y009688D02*
X021925Y009688D01*
X022050Y009847D02*
X020265Y009847D01*
X019550Y009847D02*
X017425Y009847D01*
X017425Y010005D02*
X019550Y010005D01*
X019550Y010164D02*
X017425Y010164D01*
X017425Y010322D02*
X019550Y010322D01*
X019550Y010481D02*
X017425Y010481D01*
X017425Y010639D02*
X019550Y010639D01*
X019550Y010798D02*
X017425Y010798D01*
X017425Y010956D02*
X019550Y010956D01*
X019550Y011115D02*
X017425Y011115D01*
X017425Y011273D02*
X019550Y011273D01*
X019550Y011432D02*
X017425Y011432D01*
X017425Y011590D02*
X019550Y011590D01*
X019550Y011749D02*
X017425Y011749D01*
X017425Y011907D02*
X019550Y011907D01*
X019550Y012066D02*
X017425Y012066D01*
X017425Y012224D02*
X019550Y012224D01*
X019550Y012250D02*
X019550Y009250D01*
X018986Y009250D01*
X018802Y009174D01*
X018661Y009033D01*
X018585Y008849D01*
X018585Y008651D01*
X018661Y008467D01*
X018802Y008326D01*
X018986Y008250D01*
X019550Y008250D01*
X019550Y007500D01*
X017425Y007500D01*
X017425Y014125D01*
X019550Y014125D01*
X019550Y013250D01*
X018861Y013250D01*
X018677Y013174D01*
X018536Y013033D01*
X018460Y012849D01*
X018460Y012651D01*
X018536Y012467D01*
X018677Y012326D01*
X018861Y012250D01*
X019550Y012250D01*
X018620Y012383D02*
X017425Y012383D01*
X017425Y012541D02*
X018505Y012541D01*
X018460Y012700D02*
X017425Y012700D01*
X017425Y012858D02*
X018464Y012858D01*
X018529Y013017D02*
X017425Y013017D01*
X017425Y013175D02*
X018680Y013175D01*
X019550Y013334D02*
X017425Y013334D01*
X017425Y013492D02*
X019550Y013492D01*
X019550Y013651D02*
X017425Y013651D01*
X017425Y013809D02*
X019550Y013809D01*
X019550Y013968D02*
X017425Y013968D01*
X019300Y014750D02*
X019300Y015250D01*
X019050Y015625D01*
X018175Y015625D01*
X023925Y014443D02*
X025719Y014443D01*
X025561Y014285D02*
X023925Y014285D01*
X023925Y014126D02*
X025457Y014126D01*
X025392Y013968D02*
X023925Y013968D01*
X023925Y013809D02*
X025370Y013809D01*
X025370Y013651D02*
X023925Y013651D01*
X023925Y013492D02*
X025408Y013492D01*
X025474Y013334D02*
X023925Y013334D01*
X023925Y013175D02*
X025601Y013175D01*
X025802Y013017D02*
X023925Y013017D01*
X023925Y012858D02*
X033050Y012858D01*
X033050Y012700D02*
X023925Y012700D01*
X023925Y012541D02*
X033050Y012541D01*
X033050Y012383D02*
X023925Y012383D01*
X023925Y012224D02*
X033050Y012224D01*
X033050Y012066D02*
X023925Y012066D01*
X023925Y011907D02*
X033050Y011907D01*
X033050Y011749D02*
X023925Y011749D01*
X023925Y011590D02*
X033050Y011590D01*
X033050Y011432D02*
X023925Y011432D01*
X023925Y011273D02*
X033050Y011273D01*
X033050Y013017D02*
X026598Y013017D01*
X026799Y013175D02*
X033050Y013175D01*
X033050Y013334D02*
X026926Y013334D01*
X026992Y013492D02*
X033050Y013492D01*
X033050Y013651D02*
X027030Y013651D01*
X027030Y013809D02*
X033050Y013809D01*
X033050Y013968D02*
X027008Y013968D01*
X026943Y014126D02*
X033050Y014126D01*
X033050Y014285D02*
X026839Y014285D01*
X026681Y014443D02*
X033050Y014443D01*
X027175Y011115D02*
X023925Y011115D01*
X023925Y010956D02*
X027175Y010956D01*
X027175Y010798D02*
X023925Y010798D01*
X023925Y010639D02*
X027175Y010639D01*
X027175Y010481D02*
X023925Y010481D01*
X023925Y010322D02*
X027175Y010322D01*
X027175Y010164D02*
X023925Y010164D01*
X023925Y010005D02*
X027175Y010005D01*
X027175Y009847D02*
X023925Y009847D01*
X023925Y009530D02*
X026038Y009530D01*
X025772Y009371D02*
X023925Y009371D01*
X020093Y009371D01*
X019800Y009213D02*
X023925Y009213D01*
X025618Y009213D01*
X025553Y009054D02*
X023925Y009054D01*
X019800Y009054D01*
X019800Y008896D02*
X023925Y008896D01*
X025495Y008896D01*
X025495Y008737D02*
X023925Y008737D01*
X019800Y008737D01*
X019800Y008579D02*
X023925Y008579D01*
X025498Y008579D01*
X025563Y008420D02*
X023925Y008420D01*
X019800Y008420D01*
X019800Y008262D02*
X023925Y008262D01*
X025640Y008262D01*
X025798Y008103D02*
X023925Y008103D01*
X020119Y008103D01*
X020226Y007945D02*
X023925Y007945D01*
X026101Y007945D01*
X026549Y007945D02*
X031050Y007945D01*
X031050Y008103D02*
X026852Y008103D01*
X027010Y008262D02*
X031050Y008262D01*
X031050Y008420D02*
X027087Y008420D01*
X027152Y008579D02*
X031050Y008579D01*
X031050Y008737D02*
X027155Y008737D01*
X023925Y007786D02*
X020265Y007786D01*
X020255Y007628D02*
X023925Y007628D01*
X031050Y007628D01*
X031050Y007786D02*
X023925Y007786D01*
X023925Y007469D02*
X031050Y007469D01*
X031050Y007311D02*
X023925Y007311D01*
X023925Y007152D02*
X031050Y007152D01*
X031050Y006994D02*
X023925Y006994D01*
X023925Y006835D02*
X031050Y006835D01*
X031050Y006677D02*
X023925Y006677D01*
X023925Y006518D02*
X031050Y006518D01*
X019550Y007628D02*
X017425Y007628D01*
X017425Y007786D02*
X019550Y007786D01*
X019550Y007945D02*
X017425Y007945D01*
X017425Y008103D02*
X019550Y008103D01*
X018958Y008262D02*
X017425Y008262D01*
X017425Y008420D02*
X018708Y008420D01*
X018615Y008579D02*
X017425Y008579D01*
X017425Y008737D02*
X018585Y008737D01*
X018604Y008896D02*
X017425Y008896D01*
X017425Y009054D02*
X018682Y009054D01*
X018895Y009213D02*
X017425Y009213D01*
X017425Y009371D02*
X019550Y009371D01*
X019550Y009530D02*
X017425Y009530D01*
X017425Y009688D02*
X019550Y009688D01*
X015425Y008875D02*
X015300Y009000D01*
X015425Y008875D02*
X015425Y007250D01*
X016779Y007146D01*
X017279Y006625D01*
X011050Y006375D02*
X011050Y006125D01*
X007676Y006374D02*
X007550Y006500D01*
D29*
X010550Y005875D03*
X011050Y006375D03*
X015300Y009000D03*
X021800Y009250D03*
X023175Y009250D03*
X024425Y009250D03*
X024425Y008125D03*
X023175Y008125D03*
X021800Y008125D03*
X025550Y007125D03*
X026800Y007125D03*
X027925Y007125D03*
X029175Y007125D03*
X030300Y007125D03*
X032550Y006500D03*
X030300Y008375D03*
X029175Y008375D03*
X027925Y008375D03*
X026800Y010375D03*
X025550Y010375D03*
X024425Y010375D03*
X004425Y006625D03*
X003925Y007125D03*
X002300Y007750D03*
X004300Y008125D03*
D30*
X000925Y014500D02*
X001675Y015250D01*
X002230Y015250D01*
X002675Y015320D01*
X000800Y015500D02*
X000925Y014500D01*
M02*
