%
M48
M72
T01C0.0236
T02C0.0400
T03C0.0440
T04C0.0540
T05C0.1260
T06C0.1300
%
T01
X10550Y5875
X11050Y6375
X15300Y9000
X21800Y9250
X23175Y9250
X24425Y9250
X24425Y8125
X23175Y8125
X21800Y8125
X25550Y7125
X26800Y7125
X27925Y7125
X29175Y7125
X30300Y7125
X32550Y6500
X30300Y8375
X29175Y8375
X27925Y8375
X26800Y10375
X25550Y10375
X24425Y10375
X4425Y6625
X3925Y7125
X2300Y7750
X4300Y8125
T02
X800Y5750
X800Y6750
X800Y7750
X800Y8750
X800Y9750
X800Y10750
X800Y12875
X800Y15500
X7550Y9000
X7550Y8000
X7550Y6500
X20675Y11250
X18175Y15625
X33675Y10875
X33675Y9250
T03
X19425Y8750
X19425Y9750
X19425Y7750
X19300Y12750
X19300Y13750
X19300Y14750
T04
X18800Y11125
X8300Y11125
T05
X13550Y11125
X33550Y15375
T06
X26200Y13750
X26325Y8750
M30
